%TF.GenerationSoftware,KiCad,Pcbnew,7.0.10*%
%TF.CreationDate,2025-04-28T11:59:33+02:00*%
%TF.ProjectId,projekt,70726f6a-656b-4742-9e6b-696361645f70,rev?*%
%TF.SameCoordinates,Original*%
%TF.FileFunction,Soldermask,Top*%
%TF.FilePolarity,Negative*%
%FSLAX46Y46*%
G04 Gerber Fmt 4.6, Leading zero omitted, Abs format (unit mm)*
G04 Created by KiCad (PCBNEW 7.0.10) date 2025-04-28 11:59:33*
%MOMM*%
%LPD*%
G01*
G04 APERTURE LIST*
G04 Aperture macros list*
%AMRoundRect*
0 Rectangle with rounded corners*
0 $1 Rounding radius*
0 $2 $3 $4 $5 $6 $7 $8 $9 X,Y pos of 4 corners*
0 Add a 4 corners polygon primitive as box body*
4,1,4,$2,$3,$4,$5,$6,$7,$8,$9,$2,$3,0*
0 Add four circle primitives for the rounded corners*
1,1,$1+$1,$2,$3*
1,1,$1+$1,$4,$5*
1,1,$1+$1,$6,$7*
1,1,$1+$1,$8,$9*
0 Add four rect primitives between the rounded corners*
20,1,$1+$1,$2,$3,$4,$5,0*
20,1,$1+$1,$4,$5,$6,$7,0*
20,1,$1+$1,$6,$7,$8,$9,0*
20,1,$1+$1,$8,$9,$2,$3,0*%
G04 Aperture macros list end*
%ADD10C,0.001000*%
%ADD11RoundRect,0.200000X0.200000X0.275000X-0.200000X0.275000X-0.200000X-0.275000X0.200000X-0.275000X0*%
%ADD12RoundRect,0.102000X3.730000X3.235000X-3.730000X3.235000X-3.730000X-3.235000X3.730000X-3.235000X0*%
%ADD13C,2.390000*%
%ADD14C,3.450000*%
%ADD15RoundRect,0.218750X-0.218750X-0.256250X0.218750X-0.256250X0.218750X0.256250X-0.218750X0.256250X0*%
%ADD16R,1.000000X1.000000*%
%ADD17RoundRect,0.200000X-0.200000X-0.275000X0.200000X-0.275000X0.200000X0.275000X-0.200000X0.275000X0*%
%ADD18R,1.700000X1.700000*%
%ADD19O,1.700000X1.700000*%
%ADD20RoundRect,0.225000X0.250000X-0.225000X0.250000X0.225000X-0.250000X0.225000X-0.250000X-0.225000X0*%
%ADD21C,2.200000*%
%ADD22RoundRect,0.059250X-0.177750X0.422750X-0.177750X-0.422750X0.177750X-0.422750X0.177750X0.422750X0*%
%ADD23RoundRect,0.102000X-0.650000X0.450000X-0.650000X-0.450000X0.650000X-0.450000X0.650000X0.450000X0*%
%ADD24RoundRect,0.225000X-0.250000X0.225000X-0.250000X-0.225000X0.250000X-0.225000X0.250000X0.225000X0*%
%ADD25RoundRect,0.102000X-0.675000X0.200000X-0.675000X-0.200000X0.675000X-0.200000X0.675000X0.200000X0*%
%ADD26RoundRect,0.102000X-0.800000X1.050000X-0.800000X-1.050000X0.800000X-1.050000X0.800000X1.050000X0*%
%ADD27RoundRect,0.102000X-0.950000X0.900000X-0.950000X-0.900000X0.950000X-0.900000X0.950000X0.900000X0*%
%ADD28RoundRect,0.102000X-0.950000X0.950000X-0.950000X-0.950000X0.950000X-0.950000X0.950000X0.950000X0*%
%ADD29RoundRect,0.200000X0.275000X-0.200000X0.275000X0.200000X-0.275000X0.200000X-0.275000X-0.200000X0*%
%ADD30C,1.000000*%
%ADD31RoundRect,0.225000X0.225000X0.250000X-0.225000X0.250000X-0.225000X-0.250000X0.225000X-0.250000X0*%
%ADD32RoundRect,0.116000X0.406000X0.116000X-0.406000X0.116000X-0.406000X-0.116000X0.406000X-0.116000X0*%
%ADD33RoundRect,0.116000X0.116000X0.406000X-0.116000X0.406000X-0.116000X-0.406000X0.116000X-0.406000X0*%
%ADD34RoundRect,0.102000X1.350000X1.350000X-1.350000X1.350000X-1.350000X-1.350000X1.350000X-1.350000X0*%
%ADD35RoundRect,0.102000X1.440000X-0.560000X1.440000X0.560000X-1.440000X0.560000X-1.440000X-0.560000X0*%
%ADD36C,3.580000*%
%ADD37RoundRect,0.102000X0.575000X0.175000X-0.575000X0.175000X-0.575000X-0.175000X0.575000X-0.175000X0*%
%ADD38RoundRect,0.102000X0.725000X0.100000X-0.725000X0.100000X-0.725000X-0.100000X0.725000X-0.100000X0*%
%ADD39RoundRect,0.102000X0.225000X0.125000X-0.225000X0.125000X-0.225000X-0.125000X0.225000X-0.125000X0*%
%ADD40C,0.750000*%
G04 APERTURE END LIST*
%TO.C,L1*%
D10*
X183550000Y-75750000D02*
X181750000Y-75750000D01*
X181750000Y-74616000D01*
X181918000Y-74532000D01*
X181996000Y-74478000D01*
X182075000Y-74416000D01*
X182133000Y-74364000D01*
X182175000Y-74319000D01*
X182239000Y-74250000D01*
X182288000Y-74185000D01*
X182338000Y-74106000D01*
X182393000Y-74000000D01*
X182428000Y-73914000D01*
X182461000Y-73812000D01*
X182487000Y-73688000D01*
X182498000Y-73582000D01*
X182501000Y-73476000D01*
X182495000Y-73398000D01*
X182487000Y-73311000D01*
X182472000Y-73238000D01*
X182461000Y-73193000D01*
X182450000Y-73154000D01*
X182427000Y-73085000D01*
X182401000Y-73019000D01*
X182362000Y-72939000D01*
X182330000Y-72881000D01*
X182281000Y-72806000D01*
X182201000Y-72706000D01*
X182160000Y-72662000D01*
X182115000Y-72618000D01*
X182060000Y-72570000D01*
X182002000Y-72526000D01*
X181934000Y-72481000D01*
X181872000Y-72444000D01*
X181827000Y-72421000D01*
X181776000Y-72399000D01*
X181750000Y-72385000D01*
X181750000Y-71250000D01*
X183550000Y-71250000D01*
X183550000Y-75750000D01*
G36*
X183550000Y-75750000D02*
G01*
X181750000Y-75750000D01*
X181750000Y-74616000D01*
X181918000Y-74532000D01*
X181996000Y-74478000D01*
X182075000Y-74416000D01*
X182133000Y-74364000D01*
X182175000Y-74319000D01*
X182239000Y-74250000D01*
X182288000Y-74185000D01*
X182338000Y-74106000D01*
X182393000Y-74000000D01*
X182428000Y-73914000D01*
X182461000Y-73812000D01*
X182487000Y-73688000D01*
X182498000Y-73582000D01*
X182501000Y-73476000D01*
X182495000Y-73398000D01*
X182487000Y-73311000D01*
X182472000Y-73238000D01*
X182461000Y-73193000D01*
X182450000Y-73154000D01*
X182427000Y-73085000D01*
X182401000Y-73019000D01*
X182362000Y-72939000D01*
X182330000Y-72881000D01*
X182281000Y-72806000D01*
X182201000Y-72706000D01*
X182160000Y-72662000D01*
X182115000Y-72618000D01*
X182060000Y-72570000D01*
X182002000Y-72526000D01*
X181934000Y-72481000D01*
X181872000Y-72444000D01*
X181827000Y-72421000D01*
X181776000Y-72399000D01*
X181750000Y-72385000D01*
X181750000Y-71250000D01*
X183550000Y-71250000D01*
X183550000Y-75750000D01*
G37*
X180850000Y-72384000D02*
X180682000Y-72468000D01*
X180604000Y-72522000D01*
X180525000Y-72584000D01*
X180467000Y-72636000D01*
X180425000Y-72681000D01*
X180361000Y-72750000D01*
X180312000Y-72815000D01*
X180262000Y-72894000D01*
X180207000Y-73000000D01*
X180172000Y-73086000D01*
X180139000Y-73188000D01*
X180113000Y-73312000D01*
X180102000Y-73418000D01*
X180099000Y-73524000D01*
X180105000Y-73602000D01*
X180113000Y-73689000D01*
X180128000Y-73762000D01*
X180139000Y-73807000D01*
X180150000Y-73846000D01*
X180173000Y-73915000D01*
X180199000Y-73981000D01*
X180238000Y-74061000D01*
X180270000Y-74119000D01*
X180319000Y-74194000D01*
X180399000Y-74294000D01*
X180440000Y-74338000D01*
X180485000Y-74382000D01*
X180540000Y-74430000D01*
X180598000Y-74474000D01*
X180666000Y-74519000D01*
X180728000Y-74556000D01*
X180773000Y-74579000D01*
X180824000Y-74601000D01*
X180850000Y-74615000D01*
X180850000Y-75750000D01*
X179050000Y-75750000D01*
X179050000Y-71250000D01*
X180850000Y-71250000D01*
X180850000Y-72384000D01*
G36*
X180850000Y-72384000D02*
G01*
X180682000Y-72468000D01*
X180604000Y-72522000D01*
X180525000Y-72584000D01*
X180467000Y-72636000D01*
X180425000Y-72681000D01*
X180361000Y-72750000D01*
X180312000Y-72815000D01*
X180262000Y-72894000D01*
X180207000Y-73000000D01*
X180172000Y-73086000D01*
X180139000Y-73188000D01*
X180113000Y-73312000D01*
X180102000Y-73418000D01*
X180099000Y-73524000D01*
X180105000Y-73602000D01*
X180113000Y-73689000D01*
X180128000Y-73762000D01*
X180139000Y-73807000D01*
X180150000Y-73846000D01*
X180173000Y-73915000D01*
X180199000Y-73981000D01*
X180238000Y-74061000D01*
X180270000Y-74119000D01*
X180319000Y-74194000D01*
X180399000Y-74294000D01*
X180440000Y-74338000D01*
X180485000Y-74382000D01*
X180540000Y-74430000D01*
X180598000Y-74474000D01*
X180666000Y-74519000D01*
X180728000Y-74556000D01*
X180773000Y-74579000D01*
X180824000Y-74601000D01*
X180850000Y-74615000D01*
X180850000Y-75750000D01*
X179050000Y-75750000D01*
X179050000Y-71250000D01*
X180850000Y-71250000D01*
X180850000Y-72384000D01*
G37*
%TD*%
D11*
%TO.C,R2*%
X144000000Y-76500000D03*
X142350000Y-76500000D03*
%TD*%
D12*
%TO.C,BT1*%
X130265000Y-89000000D03*
X209605000Y-89000000D03*
D13*
X134115000Y-81000000D03*
D14*
X142335000Y-97000000D03*
X197535000Y-81000000D03*
%TD*%
D15*
%TO.C,D1*%
X169712500Y-68400000D03*
X171287500Y-68400000D03*
%TD*%
D16*
%TO.C,TP4*%
X193900000Y-73600000D03*
%TD*%
D11*
%TO.C,R1*%
X144000000Y-73650000D03*
X142350000Y-73650000D03*
%TD*%
D17*
%TO.C,R16*%
X173825000Y-62300000D03*
X175475000Y-62300000D03*
%TD*%
D11*
%TO.C,R9*%
X158200000Y-68200000D03*
X156550000Y-68200000D03*
%TD*%
D18*
%TO.C,J2*%
X189900000Y-63300000D03*
D19*
X192440000Y-63300000D03*
X194980000Y-63300000D03*
%TD*%
D11*
%TO.C,RT1*%
X174325000Y-71700000D03*
X172675000Y-71700000D03*
%TD*%
D20*
%TO.C,C1*%
X150200000Y-68250000D03*
X150200000Y-66700000D03*
%TD*%
D16*
%TO.C,TP1*%
X147100000Y-76700000D03*
%TD*%
D20*
%TO.C,C5*%
X129000000Y-80075000D03*
X129000000Y-78525000D03*
%TD*%
D17*
%TO.C,R15*%
X173825000Y-65255000D03*
X175475000Y-65255000D03*
%TD*%
D11*
%TO.C,R6*%
X169925000Y-73500000D03*
X168275000Y-73500000D03*
%TD*%
D18*
%TO.C,J1*%
X138000000Y-65925000D03*
D19*
X138000000Y-68465000D03*
X138000000Y-71005000D03*
X138000000Y-73545000D03*
X138000000Y-76085000D03*
%TD*%
D21*
%TO.C,H2*%
X217000000Y-63000000D03*
%TD*%
D17*
%TO.C,R14*%
X173825000Y-68300000D03*
X175475000Y-68300000D03*
%TD*%
D11*
%TO.C,R10*%
X158200000Y-65700000D03*
X156550000Y-65700000D03*
%TD*%
D22*
%TO.C,U1*%
X149125000Y-70617500D03*
X148625000Y-70617500D03*
X148125000Y-70617500D03*
X147625000Y-70617500D03*
X147625000Y-72587500D03*
X148125000Y-72587500D03*
X148625000Y-72587500D03*
X149125000Y-72587500D03*
D23*
X148375000Y-71602500D03*
%TD*%
D24*
%TO.C,C8*%
X158800000Y-71025000D03*
X158800000Y-72575000D03*
%TD*%
D20*
%TO.C,C3*%
X180400000Y-68775000D03*
X180400000Y-67225000D03*
%TD*%
D11*
%TO.C,R4*%
X184925000Y-63650000D03*
X183275000Y-63650000D03*
%TD*%
D16*
%TO.C,TP3*%
X189600000Y-76300000D03*
%TD*%
D15*
%TO.C,D4*%
X204012500Y-76300000D03*
X205587500Y-76300000D03*
%TD*%
D11*
%TO.C,R3*%
X144000000Y-70800000D03*
X142350000Y-70800000D03*
%TD*%
%TO.C,R5*%
X169925000Y-76200000D03*
X168275000Y-76200000D03*
%TD*%
%TO.C,R7*%
X180525000Y-63650000D03*
X178875000Y-63650000D03*
%TD*%
D25*
%TO.C,J5*%
X124115500Y-78680750D03*
X124115500Y-79330750D03*
X124115500Y-79980750D03*
X124115500Y-80630750D03*
X124115500Y-81280750D03*
D26*
X123990500Y-76880750D03*
X123990500Y-83080750D03*
D27*
X121440500Y-76180750D03*
D28*
X121440500Y-78780750D03*
X121440500Y-81180750D03*
D27*
X121440500Y-83780750D03*
%TD*%
D29*
%TO.C,R13*%
X205300000Y-67850000D03*
X205300000Y-66200000D03*
%TD*%
D30*
%TO.C,TP7*%
X186500000Y-76300000D03*
%TD*%
D31*
%TO.C,C2*%
X146775000Y-68100000D03*
X145225000Y-68100000D03*
%TD*%
D11*
%TO.C,R17*%
X200625000Y-76260000D03*
X198975000Y-76260000D03*
%TD*%
D31*
%TO.C,C9*%
X165975000Y-74400000D03*
X164425000Y-74400000D03*
%TD*%
D24*
%TO.C,C4*%
X188700000Y-66825000D03*
X188700000Y-68375000D03*
%TD*%
D30*
%TO.C,TP8*%
X197000000Y-73600000D03*
%TD*%
%TO.C,TP5*%
X150200000Y-76700000D03*
%TD*%
D24*
%TO.C,C7*%
X192200000Y-66850000D03*
X192200000Y-68400000D03*
%TD*%
D29*
%TO.C,R12*%
X205300000Y-72850000D03*
X205300000Y-71200000D03*
%TD*%
D17*
%TO.C,TH1*%
X174325000Y-87200000D03*
X172675000Y-87200000D03*
%TD*%
D11*
%TO.C,RT2*%
X174325000Y-74600000D03*
X172675000Y-74600000D03*
%TD*%
D21*
%TO.C,H3*%
X217000000Y-97000000D03*
%TD*%
D15*
%TO.C,D3*%
X169712500Y-62340000D03*
X171287500Y-62340000D03*
%TD*%
D32*
%TO.C,U3*%
X166100000Y-70100000D03*
X166100000Y-69600000D03*
X166100000Y-69100000D03*
X166100000Y-68600000D03*
X166100000Y-68100000D03*
D33*
X165165000Y-67165000D03*
X164665000Y-67165000D03*
X164165000Y-67165000D03*
X163665000Y-67165000D03*
X163165000Y-67165000D03*
D32*
X162230000Y-68100000D03*
X162230000Y-68600000D03*
X162230000Y-69100000D03*
X162230000Y-69600000D03*
X162230000Y-70100000D03*
D33*
X163165000Y-71035000D03*
X163665000Y-71035000D03*
X164165000Y-71035000D03*
X164665000Y-71035000D03*
X165165000Y-71035000D03*
D34*
X164165000Y-69100000D03*
%TD*%
D29*
%TO.C,R8*%
X201300000Y-72850000D03*
X201300000Y-71200000D03*
%TD*%
D30*
%TO.C,TP6*%
X131700000Y-74000000D03*
%TD*%
D35*
%TO.C,J4*%
X211335000Y-77765250D03*
X211335000Y-75265250D03*
X211335000Y-73265250D03*
X211335000Y-70765250D03*
D36*
X214915000Y-80835250D03*
X214915000Y-67695250D03*
%TD*%
D24*
%TO.C,C6*%
X195700000Y-66850000D03*
X195700000Y-68400000D03*
%TD*%
D37*
%TO.C,U2*%
X185161000Y-68150000D03*
D38*
X185011000Y-67600000D03*
D37*
X185161000Y-67050000D03*
D39*
X183561000Y-66850000D03*
X183561000Y-67350000D03*
X183561000Y-67850000D03*
X183561000Y-68350000D03*
%TD*%
D16*
%TO.C,TP2*%
X128600000Y-74000000D03*
%TD*%
D29*
%TO.C,R11*%
X201300000Y-67850000D03*
X201300000Y-66200000D03*
%TD*%
D15*
%TO.C,D2*%
X169712500Y-65300000D03*
X171287500Y-65300000D03*
%TD*%
D21*
%TO.C,H1*%
X133000000Y-63000000D03*
%TD*%
D40*
X172100000Y-85600000D03*
X163600000Y-69700000D03*
X155100000Y-68200000D03*
X147100000Y-73800000D03*
X155100000Y-65700000D03*
X197200000Y-76300000D03*
X206900000Y-66000000D03*
X212300000Y-70800000D03*
X163750000Y-76050000D03*
X157200000Y-73600000D03*
X211300000Y-70800000D03*
X195700000Y-69800000D03*
X150300000Y-70700000D03*
X210300000Y-70800000D03*
X188700000Y-69800000D03*
X151400000Y-65500000D03*
X164700000Y-69700000D03*
X177800000Y-63700000D03*
X127300000Y-76100000D03*
X211600000Y-89000000D03*
X129900000Y-77100000D03*
X192200000Y-69700000D03*
X211600000Y-91000000D03*
X209600000Y-91000000D03*
X125300000Y-83700000D03*
X202700000Y-65900000D03*
X211600000Y-87000000D03*
X207600000Y-89000000D03*
X179300000Y-67200000D03*
X207600000Y-91000000D03*
X146300000Y-70200000D03*
X209600000Y-87000000D03*
X209600000Y-89000000D03*
X163600000Y-68500000D03*
X164700000Y-68500000D03*
X125300000Y-81700000D03*
X144600000Y-66300000D03*
X150100000Y-71900000D03*
X207600000Y-87000000D03*
X172800000Y-75800000D03*
X169200000Y-72400000D03*
X125300000Y-82700000D03*
M02*
