%TF.GenerationSoftware,KiCad,Pcbnew,7.0.10*%
%TF.CreationDate,2025-04-27T19:33:47+02:00*%
%TF.ProjectId,projekt,70726f6a-656b-4742-9e6b-696361645f70,rev?*%
%TF.SameCoordinates,Original*%
%TF.FileFunction,Copper,L2,Bot*%
%TF.FilePolarity,Positive*%
%FSLAX46Y46*%
G04 Gerber Fmt 4.6, Leading zero omitted, Abs format (unit mm)*
G04 Created by KiCad (PCBNEW 7.0.10) date 2025-04-27 19:33:47*
%MOMM*%
%LPD*%
G01*
G04 APERTURE LIST*
%TA.AperFunction,ComponentPad*%
%ADD10C,1.000000*%
%TD*%
%TA.AperFunction,ComponentPad*%
%ADD11R,1.000000X1.000000*%
%TD*%
%TA.AperFunction,ComponentPad*%
%ADD12R,1.700000X1.700000*%
%TD*%
%TA.AperFunction,ComponentPad*%
%ADD13O,1.700000X1.700000*%
%TD*%
%TA.AperFunction,ComponentPad*%
%ADD14C,3.376000*%
%TD*%
%TA.AperFunction,ViaPad*%
%ADD15C,0.750000*%
%TD*%
G04 APERTURE END LIST*
D10*
%TO.P,TP8,1,1*%
%TO.N,+5V_OUT*%
X197000000Y-73600000D03*
%TD*%
%TO.P,TP7,1,1*%
%TO.N,V_LOAD*%
X186500000Y-76300000D03*
%TD*%
%TO.P,TP6,1,1*%
%TO.N,+5V_CHARGE*%
X131700000Y-74000000D03*
%TD*%
%TO.P,TP5,1,1*%
%TO.N,+BATT*%
X150200000Y-76700000D03*
%TD*%
D11*
%TO.P,TP4,1,1*%
%TO.N,GND*%
X193900000Y-73600000D03*
%TD*%
%TO.P,TP3,1,1*%
%TO.N,GND*%
X189600000Y-76300000D03*
%TD*%
%TO.P,TP1,1,1*%
%TO.N,GND*%
X147100000Y-76700000D03*
%TD*%
%TO.P,TP2,1,1*%
%TO.N,GND*%
X128600000Y-74000000D03*
%TD*%
D12*
%TO.P,J2,1,Pin_1*%
%TO.N,V_LOAD*%
X189900000Y-63300000D03*
D13*
%TO.P,J2,2,Pin_2*%
%TO.N,/EN*%
X192440000Y-63300000D03*
%TO.P,J2,3,Pin_3*%
%TO.N,GND*%
X194980000Y-63300000D03*
%TD*%
D12*
%TO.P,J1,1,Pin_1*%
%TO.N,GND*%
X138000000Y-65925000D03*
D13*
%TO.P,J1,2,Pin_2*%
%TO.N,V_MCU_LOGIC*%
X138000000Y-68465000D03*
%TO.P,J1,3,Pin_3*%
%TO.N,/INT*%
X138000000Y-71005000D03*
%TO.P,J1,4,Pin_4*%
%TO.N,/SCL*%
X138000000Y-73545000D03*
%TO.P,J1,5,Pin_5*%
%TO.N,/SDA*%
X138000000Y-76085000D03*
%TD*%
D14*
%TO.P,J4,SH1,SHIELD*%
%TO.N,GND*%
X214915000Y-80835250D03*
%TO.P,J4,SH2,SHIELD*%
X214915000Y-67695250D03*
%TD*%
D15*
%TO.N,GND*%
X163600000Y-69700000D03*
X155100000Y-68200000D03*
X147100000Y-73800000D03*
X155100000Y-65700000D03*
X197200000Y-76300000D03*
X206900000Y-66000000D03*
X212300000Y-70800000D03*
X163750000Y-76050000D03*
X157200000Y-73600000D03*
X211300000Y-70800000D03*
X195700000Y-69800000D03*
X150300000Y-70700000D03*
X210300000Y-70800000D03*
X188700000Y-69800000D03*
X151400000Y-65500000D03*
X164700000Y-69700000D03*
X177800000Y-63700000D03*
X127300000Y-76100000D03*
X211600000Y-89000000D03*
X172700000Y-79100000D03*
X129900000Y-77100000D03*
X192200000Y-69700000D03*
X211600000Y-91000000D03*
X209600000Y-91000000D03*
X125300000Y-83700000D03*
X202700000Y-65900000D03*
X211600000Y-87000000D03*
X207600000Y-89000000D03*
X179300000Y-67200000D03*
X207600000Y-91000000D03*
X146300000Y-70200000D03*
X209600000Y-87000000D03*
X209600000Y-89000000D03*
X163600000Y-68500000D03*
X164700000Y-68500000D03*
X125300000Y-81700000D03*
X144600000Y-66300000D03*
X150100000Y-71900000D03*
X207600000Y-87000000D03*
X172800000Y-75800000D03*
X169200000Y-72400000D03*
X125300000Y-82700000D03*
%TD*%
%TA.AperFunction,Conductor*%
%TO.N,GND*%
G36*
X186907875Y-61001278D02*
G01*
X187086993Y-61030345D01*
X187102434Y-61034145D01*
X188500000Y-61500000D01*
X190000000Y-62000000D01*
X195875174Y-62000000D01*
X195921888Y-62011714D01*
X196033582Y-62071491D01*
X196069241Y-62103862D01*
X197944528Y-64916793D01*
X197944529Y-64916794D01*
X198000000Y-65000000D01*
X208000000Y-65000000D01*
X215888472Y-65000000D01*
X215911217Y-65002648D01*
X216078226Y-65042073D01*
X216099755Y-65049877D01*
X217885401Y-65942701D01*
X217925341Y-65979201D01*
X217958803Y-66033343D01*
X217985214Y-66076076D01*
X218000000Y-66128123D01*
X218000000Y-81875173D01*
X217988286Y-81921887D01*
X217928508Y-82033582D01*
X217896137Y-82069241D01*
X215083206Y-83944528D01*
X215083205Y-83944529D01*
X215083204Y-83944530D01*
X215000000Y-84000000D01*
X215000000Y-84099999D01*
X215000000Y-91880307D01*
X214992464Y-91918193D01*
X214936825Y-92052516D01*
X214915365Y-92084634D01*
X213084634Y-93915365D01*
X213052516Y-93936825D01*
X212918193Y-93992464D01*
X212880307Y-94000000D01*
X206119693Y-94000000D01*
X206081807Y-93992464D01*
X205947483Y-93936825D01*
X205915365Y-93915365D01*
X204084634Y-92084634D01*
X204063174Y-92052515D01*
X204007536Y-91918192D01*
X204000000Y-91880307D01*
X204000000Y-81100000D01*
X204000000Y-81000000D01*
X203835250Y-80835250D01*
X213022177Y-80835250D01*
X213041442Y-81104621D01*
X213098851Y-81368524D01*
X213193228Y-81621558D01*
X213193229Y-81621560D01*
X213322656Y-81858588D01*
X213322657Y-81858589D01*
X213414892Y-81981801D01*
X213922646Y-81474046D01*
X213969306Y-81549405D01*
X214116634Y-81711016D01*
X214273971Y-81829831D01*
X213768447Y-82335356D01*
X213891660Y-82427592D01*
X213891661Y-82427593D01*
X214128689Y-82557020D01*
X214128691Y-82557021D01*
X214381726Y-82651398D01*
X214381724Y-82651398D01*
X214645628Y-82708807D01*
X214915000Y-82728072D01*
X215184371Y-82708807D01*
X215448274Y-82651398D01*
X215701308Y-82557021D01*
X215701310Y-82557020D01*
X215938333Y-82427596D01*
X216061551Y-82335356D01*
X215556027Y-81829832D01*
X215713366Y-81711016D01*
X215860694Y-81549405D01*
X215907353Y-81474048D01*
X216415106Y-81981801D01*
X216507346Y-81858583D01*
X216636770Y-81621560D01*
X216636771Y-81621558D01*
X216731148Y-81368524D01*
X216788557Y-81104621D01*
X216807822Y-80835250D01*
X216788557Y-80565878D01*
X216731148Y-80301975D01*
X216636771Y-80048941D01*
X216636770Y-80048939D01*
X216507343Y-79811911D01*
X216507342Y-79811910D01*
X216415106Y-79688697D01*
X215907352Y-80196450D01*
X215860694Y-80121095D01*
X215713366Y-79959484D01*
X215556026Y-79840666D01*
X216061551Y-79335142D01*
X215938339Y-79242907D01*
X215938338Y-79242906D01*
X215701310Y-79113479D01*
X215701308Y-79113478D01*
X215448273Y-79019101D01*
X215448275Y-79019101D01*
X215184371Y-78961692D01*
X214915000Y-78942427D01*
X214645628Y-78961692D01*
X214381725Y-79019101D01*
X214128691Y-79113478D01*
X214128689Y-79113479D01*
X213891665Y-79242904D01*
X213768447Y-79335142D01*
X214273972Y-79840667D01*
X214116634Y-79959484D01*
X213969306Y-80121095D01*
X213922646Y-80196451D01*
X213414892Y-79688697D01*
X213322654Y-79811915D01*
X213193229Y-80048939D01*
X213193228Y-80048941D01*
X213098851Y-80301975D01*
X213041442Y-80565878D01*
X213022177Y-80835250D01*
X203835250Y-80835250D01*
X201000000Y-78000000D01*
X200900000Y-78000000D01*
X185100000Y-78000000D01*
X185000000Y-78000000D01*
X184929291Y-78070709D01*
X177084634Y-85915365D01*
X177052516Y-85936825D01*
X176918193Y-85992464D01*
X176880307Y-86000000D01*
X171121412Y-86000000D01*
X171080503Y-85991152D01*
X170953646Y-85933587D01*
X170920050Y-85908627D01*
X165373161Y-79569327D01*
X164000000Y-78000000D01*
X163900001Y-78000000D01*
X157100000Y-78000000D01*
X157000000Y-78000000D01*
X156929291Y-78070709D01*
X142084634Y-92915365D01*
X142052516Y-92936825D01*
X141918193Y-92992464D01*
X141880307Y-93000000D01*
X138000000Y-93000000D01*
X137929291Y-93070709D01*
X135084634Y-95915365D01*
X135052516Y-95936825D01*
X134918193Y-95992464D01*
X134880307Y-96000000D01*
X126119693Y-96000000D01*
X126081807Y-95992464D01*
X125947483Y-95936825D01*
X125915365Y-95915365D01*
X123084634Y-93084634D01*
X123063174Y-93052515D01*
X123007536Y-92918192D01*
X123000000Y-92880307D01*
X123000000Y-87100000D01*
X123000000Y-87000000D01*
X121084634Y-85084634D01*
X121063174Y-85052515D01*
X121007536Y-84918192D01*
X121000000Y-84880307D01*
X121000000Y-81119778D01*
X132669500Y-81119778D01*
X132708930Y-81356065D01*
X132713207Y-81368524D01*
X132786714Y-81582644D01*
X132900729Y-81793323D01*
X132900731Y-81793326D01*
X132951526Y-81858588D01*
X133047866Y-81982366D01*
X133224113Y-82144612D01*
X133424660Y-82275636D01*
X133644038Y-82371864D01*
X133876263Y-82430672D01*
X134055213Y-82445500D01*
X134055221Y-82445500D01*
X134174779Y-82445500D01*
X134174787Y-82445500D01*
X134353737Y-82430672D01*
X134585962Y-82371864D01*
X134805340Y-82275636D01*
X135005887Y-82144612D01*
X135182134Y-81982366D01*
X135329271Y-81793323D01*
X135443287Y-81582641D01*
X135521070Y-81356065D01*
X135560500Y-81119778D01*
X135560500Y-80880222D01*
X135521070Y-80643935D01*
X135443287Y-80417359D01*
X135329271Y-80206677D01*
X135182134Y-80017634D01*
X135005887Y-79855388D01*
X134805340Y-79724364D01*
X134585962Y-79628136D01*
X134353737Y-79569328D01*
X134353735Y-79569327D01*
X134174796Y-79554500D01*
X134174787Y-79554500D01*
X134055213Y-79554500D01*
X134055203Y-79554500D01*
X133876266Y-79569327D01*
X133644037Y-79628136D01*
X133473324Y-79703018D01*
X133424660Y-79724364D01*
X133330527Y-79785864D01*
X133224114Y-79855387D01*
X133047863Y-80017637D01*
X132900731Y-80206673D01*
X132900729Y-80206676D01*
X132786714Y-80417355D01*
X132786713Y-80417359D01*
X132708930Y-80643935D01*
X132669500Y-80880222D01*
X132669500Y-81119778D01*
X121000000Y-81119778D01*
X121000000Y-77219700D01*
X146400000Y-77219700D01*
X146411603Y-77278036D01*
X146455806Y-77344189D01*
X146455810Y-77344193D01*
X146521963Y-77388396D01*
X146580299Y-77399999D01*
X146580303Y-77400000D01*
X146849999Y-77400000D01*
X146850000Y-77399999D01*
X147350000Y-77399999D01*
X147350001Y-77400000D01*
X147619697Y-77400000D01*
X147619700Y-77399999D01*
X147678036Y-77388396D01*
X147744189Y-77344193D01*
X147744193Y-77344189D01*
X147788396Y-77278036D01*
X147799999Y-77219700D01*
X147800000Y-77219697D01*
X147800000Y-76950001D01*
X147799999Y-76950000D01*
X147350001Y-76950000D01*
X147350000Y-76950001D01*
X147350000Y-77399999D01*
X146850000Y-77399999D01*
X146850000Y-76950001D01*
X146849999Y-76950000D01*
X146400001Y-76950000D01*
X146400000Y-76950001D01*
X146400000Y-77219700D01*
X121000000Y-77219700D01*
X121000000Y-76085003D01*
X136944417Y-76085003D01*
X136964698Y-76290929D01*
X136964699Y-76290934D01*
X137024768Y-76488954D01*
X137122316Y-76671452D01*
X137225798Y-76797545D01*
X137253590Y-76831410D01*
X137253595Y-76831414D01*
X137413547Y-76962683D01*
X137413548Y-76962683D01*
X137413550Y-76962685D01*
X137596046Y-77060232D01*
X137733997Y-77102078D01*
X137794065Y-77120300D01*
X137794070Y-77120301D01*
X137999997Y-77140583D01*
X138000000Y-77140583D01*
X138000003Y-77140583D01*
X138205929Y-77120301D01*
X138205934Y-77120300D01*
X138403954Y-77060232D01*
X138586450Y-76962685D01*
X138746410Y-76831410D01*
X138854255Y-76700000D01*
X146845102Y-76700000D01*
X146864505Y-76797545D01*
X146919760Y-76880240D01*
X147002455Y-76935495D01*
X147075376Y-76950000D01*
X147124624Y-76950000D01*
X147197545Y-76935495D01*
X147280240Y-76880240D01*
X147335495Y-76797545D01*
X147354898Y-76700000D01*
X149494355Y-76700000D01*
X149514860Y-76868872D01*
X149575182Y-77027930D01*
X149671817Y-77167929D01*
X149799148Y-77280734D01*
X149949775Y-77359790D01*
X150114944Y-77400500D01*
X150114947Y-77400500D01*
X150285053Y-77400500D01*
X150285056Y-77400500D01*
X150450225Y-77359790D01*
X150600852Y-77280734D01*
X150728183Y-77167929D01*
X150824818Y-77027930D01*
X150885140Y-76868872D01*
X150905645Y-76700000D01*
X150885140Y-76531128D01*
X150824818Y-76372070D01*
X150775071Y-76300000D01*
X185794355Y-76300000D01*
X185814860Y-76468872D01*
X185875182Y-76627930D01*
X185971817Y-76767929D01*
X186099148Y-76880734D01*
X186249775Y-76959790D01*
X186414944Y-77000500D01*
X186414947Y-77000500D01*
X186585053Y-77000500D01*
X186585056Y-77000500D01*
X186750225Y-76959790D01*
X186900852Y-76880734D01*
X186969745Y-76819700D01*
X188900000Y-76819700D01*
X188911603Y-76878036D01*
X188955806Y-76944189D01*
X188955810Y-76944193D01*
X189021963Y-76988396D01*
X189080299Y-76999999D01*
X189080303Y-77000000D01*
X189349999Y-77000000D01*
X189350000Y-76999999D01*
X189850000Y-76999999D01*
X189850001Y-77000000D01*
X190119697Y-77000000D01*
X190119700Y-76999999D01*
X190178036Y-76988396D01*
X190244189Y-76944193D01*
X190244193Y-76944189D01*
X190288396Y-76878036D01*
X190299999Y-76819700D01*
X190300000Y-76819697D01*
X190300000Y-76550001D01*
X190299999Y-76550000D01*
X189850001Y-76550000D01*
X189850000Y-76550001D01*
X189850000Y-76999999D01*
X189350000Y-76999999D01*
X189350000Y-76550001D01*
X189349999Y-76550000D01*
X188900001Y-76550000D01*
X188900000Y-76550001D01*
X188900000Y-76819700D01*
X186969745Y-76819700D01*
X187028183Y-76767929D01*
X187124818Y-76627930D01*
X187185140Y-76468872D01*
X187205645Y-76300000D01*
X189345102Y-76300000D01*
X189364505Y-76397545D01*
X189419760Y-76480240D01*
X189502455Y-76535495D01*
X189575376Y-76550000D01*
X189624624Y-76550000D01*
X189697545Y-76535495D01*
X189780240Y-76480240D01*
X189835495Y-76397545D01*
X189854898Y-76300000D01*
X189835495Y-76202455D01*
X189780240Y-76119760D01*
X189697545Y-76064505D01*
X189624624Y-76050000D01*
X189575376Y-76050000D01*
X189502455Y-76064505D01*
X189419760Y-76119760D01*
X189364505Y-76202455D01*
X189345102Y-76300000D01*
X187205645Y-76300000D01*
X187185140Y-76131128D01*
X187154372Y-76049999D01*
X188900000Y-76049999D01*
X188900001Y-76050000D01*
X189349999Y-76050000D01*
X189350000Y-76049999D01*
X189850000Y-76049999D01*
X189850001Y-76050000D01*
X190299999Y-76050000D01*
X190300000Y-76049999D01*
X190300000Y-75780302D01*
X190299999Y-75780299D01*
X190288396Y-75721963D01*
X190244193Y-75655810D01*
X190244189Y-75655806D01*
X190178036Y-75611603D01*
X190119700Y-75600000D01*
X189850001Y-75600000D01*
X189850000Y-75600001D01*
X189850000Y-76049999D01*
X189350000Y-76049999D01*
X189350000Y-75600001D01*
X189349999Y-75600000D01*
X189080299Y-75600000D01*
X189021963Y-75611603D01*
X188955810Y-75655806D01*
X188955806Y-75655810D01*
X188911603Y-75721963D01*
X188900000Y-75780299D01*
X188900000Y-76049999D01*
X187154372Y-76049999D01*
X187124818Y-75972070D01*
X187028183Y-75832071D01*
X186900852Y-75719266D01*
X186750225Y-75640210D01*
X186750224Y-75640209D01*
X186750223Y-75640209D01*
X186585058Y-75599500D01*
X186585056Y-75599500D01*
X186414944Y-75599500D01*
X186414941Y-75599500D01*
X186249776Y-75640209D01*
X186099146Y-75719267D01*
X185971818Y-75832069D01*
X185971817Y-75832071D01*
X185875182Y-75972070D01*
X185814860Y-76131128D01*
X185794355Y-76300000D01*
X150775071Y-76300000D01*
X150728183Y-76232071D01*
X150600852Y-76119266D01*
X150450225Y-76040210D01*
X150450224Y-76040209D01*
X150450223Y-76040209D01*
X150285058Y-75999500D01*
X150285056Y-75999500D01*
X150114944Y-75999500D01*
X150114941Y-75999500D01*
X149949776Y-76040209D01*
X149799146Y-76119267D01*
X149671818Y-76232069D01*
X149671816Y-76232072D01*
X149624930Y-76299998D01*
X149575182Y-76372070D01*
X149514860Y-76531128D01*
X149512568Y-76550001D01*
X149497822Y-76671450D01*
X149494355Y-76700000D01*
X147354898Y-76700000D01*
X147335495Y-76602455D01*
X147280240Y-76519760D01*
X147197545Y-76464505D01*
X147124624Y-76450000D01*
X147075376Y-76450000D01*
X147002455Y-76464505D01*
X146919760Y-76519760D01*
X146864505Y-76602455D01*
X146845102Y-76700000D01*
X138854255Y-76700000D01*
X138877685Y-76671450D01*
X138975232Y-76488954D01*
X138987049Y-76449999D01*
X146400000Y-76449999D01*
X146400001Y-76450000D01*
X146849999Y-76450000D01*
X146850000Y-76449999D01*
X147350000Y-76449999D01*
X147350001Y-76450000D01*
X147799999Y-76450000D01*
X147800000Y-76449999D01*
X147800000Y-76180302D01*
X147799999Y-76180299D01*
X147788396Y-76121963D01*
X147744193Y-76055810D01*
X147744189Y-76055806D01*
X147678036Y-76011603D01*
X147619700Y-76000000D01*
X147350001Y-76000000D01*
X147350000Y-76000001D01*
X147350000Y-76449999D01*
X146850000Y-76449999D01*
X146850000Y-76000001D01*
X146849999Y-76000000D01*
X146580299Y-76000000D01*
X146521963Y-76011603D01*
X146455810Y-76055806D01*
X146455806Y-76055810D01*
X146411603Y-76121963D01*
X146400000Y-76180299D01*
X146400000Y-76449999D01*
X138987049Y-76449999D01*
X139035300Y-76290934D01*
X139035301Y-76290929D01*
X139055583Y-76085003D01*
X139055583Y-76084996D01*
X139035301Y-75879070D01*
X139035300Y-75879065D01*
X139017078Y-75818997D01*
X138975232Y-75681046D01*
X138877685Y-75498550D01*
X138746410Y-75338590D01*
X138746404Y-75338585D01*
X138586452Y-75207316D01*
X138403954Y-75109768D01*
X138205934Y-75049699D01*
X138205929Y-75049698D01*
X138000003Y-75029417D01*
X137999997Y-75029417D01*
X137794070Y-75049698D01*
X137794065Y-75049699D01*
X137596045Y-75109768D01*
X137413547Y-75207316D01*
X137253595Y-75338585D01*
X137253585Y-75338595D01*
X137122316Y-75498547D01*
X137024768Y-75681045D01*
X136964699Y-75879065D01*
X136964698Y-75879070D01*
X136944417Y-76084996D01*
X136944417Y-76085003D01*
X121000000Y-76085003D01*
X121000000Y-75141008D01*
X121018907Y-75082817D01*
X121028996Y-75071004D01*
X121071004Y-75028996D01*
X121125521Y-75001219D01*
X121141008Y-75000000D01*
X123899999Y-75000000D01*
X123900000Y-75000000D01*
X124000000Y-75000000D01*
X124480300Y-74519700D01*
X127900000Y-74519700D01*
X127911603Y-74578036D01*
X127955806Y-74644189D01*
X127955810Y-74644193D01*
X128021963Y-74688396D01*
X128080299Y-74699999D01*
X128080303Y-74700000D01*
X128349999Y-74700000D01*
X128350000Y-74699999D01*
X128850000Y-74699999D01*
X128850001Y-74700000D01*
X129119697Y-74700000D01*
X129119700Y-74699999D01*
X129178036Y-74688396D01*
X129244189Y-74644193D01*
X129244193Y-74644189D01*
X129288396Y-74578036D01*
X129299999Y-74519700D01*
X129300000Y-74519697D01*
X129300000Y-74250001D01*
X129299999Y-74250000D01*
X128850001Y-74250000D01*
X128850000Y-74250001D01*
X128850000Y-74699999D01*
X128350000Y-74699999D01*
X128350000Y-74250001D01*
X128349999Y-74250000D01*
X127900001Y-74250000D01*
X127900000Y-74250001D01*
X127900000Y-74519700D01*
X124480300Y-74519700D01*
X125000000Y-74000000D01*
X128345102Y-74000000D01*
X128364505Y-74097545D01*
X128419760Y-74180240D01*
X128502455Y-74235495D01*
X128575376Y-74250000D01*
X128624624Y-74250000D01*
X128697545Y-74235495D01*
X128780240Y-74180240D01*
X128835495Y-74097545D01*
X128854898Y-74000000D01*
X130994355Y-74000000D01*
X131014860Y-74168872D01*
X131075182Y-74327930D01*
X131171817Y-74467929D01*
X131299148Y-74580734D01*
X131449775Y-74659790D01*
X131614944Y-74700500D01*
X131614947Y-74700500D01*
X131785053Y-74700500D01*
X131785056Y-74700500D01*
X131950225Y-74659790D01*
X132100852Y-74580734D01*
X132228183Y-74467929D01*
X132324818Y-74327930D01*
X132385140Y-74168872D01*
X132405645Y-74000000D01*
X132385140Y-73831128D01*
X132324818Y-73672070D01*
X132237109Y-73545003D01*
X136944417Y-73545003D01*
X136964698Y-73750929D01*
X136964699Y-73750934D01*
X137024768Y-73948954D01*
X137122316Y-74131452D01*
X137227640Y-74259790D01*
X137253590Y-74291410D01*
X137253595Y-74291414D01*
X137413547Y-74422683D01*
X137413548Y-74422683D01*
X137413550Y-74422685D01*
X137596046Y-74520232D01*
X137733997Y-74562078D01*
X137794065Y-74580300D01*
X137794070Y-74580301D01*
X137999997Y-74600583D01*
X138000000Y-74600583D01*
X138000003Y-74600583D01*
X138205929Y-74580301D01*
X138205934Y-74580300D01*
X138213397Y-74578036D01*
X138403954Y-74520232D01*
X138586450Y-74422685D01*
X138746410Y-74291410D01*
X138877685Y-74131450D01*
X138883966Y-74119700D01*
X193200000Y-74119700D01*
X193211603Y-74178036D01*
X193255806Y-74244189D01*
X193255810Y-74244193D01*
X193321963Y-74288396D01*
X193380299Y-74299999D01*
X193380303Y-74300000D01*
X193649999Y-74300000D01*
X193650000Y-74299999D01*
X194150000Y-74299999D01*
X194150001Y-74300000D01*
X194419697Y-74300000D01*
X194419700Y-74299999D01*
X194478036Y-74288396D01*
X194544189Y-74244193D01*
X194544193Y-74244189D01*
X194588396Y-74178036D01*
X194599999Y-74119700D01*
X194600000Y-74119697D01*
X194600000Y-73850001D01*
X194599999Y-73850000D01*
X194150001Y-73850000D01*
X194150000Y-73850001D01*
X194150000Y-74299999D01*
X193650000Y-74299999D01*
X193650000Y-73850001D01*
X193649999Y-73850000D01*
X193200001Y-73850000D01*
X193200000Y-73850001D01*
X193200000Y-74119700D01*
X138883966Y-74119700D01*
X138975232Y-73948954D01*
X139035300Y-73750934D01*
X139035301Y-73750929D01*
X139050166Y-73600000D01*
X193645102Y-73600000D01*
X193664505Y-73697545D01*
X193719760Y-73780240D01*
X193802455Y-73835495D01*
X193875376Y-73850000D01*
X193924624Y-73850000D01*
X193997545Y-73835495D01*
X194080240Y-73780240D01*
X194135495Y-73697545D01*
X194154898Y-73600000D01*
X196294355Y-73600000D01*
X196314860Y-73768872D01*
X196375182Y-73927930D01*
X196471817Y-74067929D01*
X196599148Y-74180734D01*
X196749775Y-74259790D01*
X196914944Y-74300500D01*
X196914947Y-74300500D01*
X197085053Y-74300500D01*
X197085056Y-74300500D01*
X197250225Y-74259790D01*
X197400852Y-74180734D01*
X197528183Y-74067929D01*
X197624818Y-73927930D01*
X197685140Y-73768872D01*
X197705645Y-73600000D01*
X197685140Y-73431128D01*
X197624818Y-73272070D01*
X197528183Y-73132071D01*
X197400852Y-73019266D01*
X197250225Y-72940210D01*
X197250224Y-72940209D01*
X197250223Y-72940209D01*
X197085058Y-72899500D01*
X197085056Y-72899500D01*
X196914944Y-72899500D01*
X196914941Y-72899500D01*
X196749776Y-72940209D01*
X196599146Y-73019267D01*
X196471818Y-73132069D01*
X196471816Y-73132072D01*
X196465622Y-73141046D01*
X196375182Y-73272070D01*
X196314860Y-73431128D01*
X196294355Y-73600000D01*
X194154898Y-73600000D01*
X194135495Y-73502455D01*
X194080240Y-73419760D01*
X193997545Y-73364505D01*
X193924624Y-73350000D01*
X193875376Y-73350000D01*
X193802455Y-73364505D01*
X193719760Y-73419760D01*
X193664505Y-73502455D01*
X193645102Y-73600000D01*
X139050166Y-73600000D01*
X139055583Y-73545003D01*
X139055583Y-73544996D01*
X139036377Y-73349999D01*
X193200000Y-73349999D01*
X193200001Y-73350000D01*
X193649999Y-73350000D01*
X193650000Y-73349999D01*
X194150000Y-73349999D01*
X194150001Y-73350000D01*
X194599999Y-73350000D01*
X194600000Y-73349999D01*
X194600000Y-73080302D01*
X194599999Y-73080299D01*
X194588396Y-73021963D01*
X194544193Y-72955810D01*
X194544189Y-72955806D01*
X194478036Y-72911603D01*
X194419700Y-72900000D01*
X194150001Y-72900000D01*
X194150000Y-72900001D01*
X194150000Y-73349999D01*
X193650000Y-73349999D01*
X193650000Y-72900001D01*
X193649999Y-72900000D01*
X193380299Y-72900000D01*
X193321963Y-72911603D01*
X193255810Y-72955806D01*
X193255806Y-72955810D01*
X193211603Y-73021963D01*
X193200000Y-73080299D01*
X193200000Y-73349999D01*
X139036377Y-73349999D01*
X139035301Y-73339070D01*
X139035300Y-73339065D01*
X139014977Y-73272070D01*
X138975232Y-73141046D01*
X138877685Y-72958550D01*
X138875436Y-72955810D01*
X138746414Y-72798595D01*
X138746410Y-72798590D01*
X138746404Y-72798585D01*
X138586452Y-72667316D01*
X138403954Y-72569768D01*
X138205934Y-72509699D01*
X138205929Y-72509698D01*
X138000003Y-72489417D01*
X137999997Y-72489417D01*
X137794070Y-72509698D01*
X137794065Y-72509699D01*
X137596045Y-72569768D01*
X137413547Y-72667316D01*
X137253595Y-72798585D01*
X137253585Y-72798595D01*
X137122316Y-72958547D01*
X137024768Y-73141045D01*
X136964699Y-73339065D01*
X136964698Y-73339070D01*
X136944417Y-73544996D01*
X136944417Y-73545003D01*
X132237109Y-73545003D01*
X132228183Y-73532071D01*
X132100852Y-73419266D01*
X131950225Y-73340210D01*
X131950224Y-73340209D01*
X131950223Y-73340209D01*
X131785058Y-73299500D01*
X131785056Y-73299500D01*
X131614944Y-73299500D01*
X131614941Y-73299500D01*
X131449776Y-73340209D01*
X131299146Y-73419267D01*
X131171818Y-73532069D01*
X131171816Y-73532072D01*
X131124930Y-73599998D01*
X131075182Y-73672070D01*
X131014860Y-73831128D01*
X130994355Y-74000000D01*
X128854898Y-74000000D01*
X128835495Y-73902455D01*
X128780240Y-73819760D01*
X128697545Y-73764505D01*
X128624624Y-73750000D01*
X128575376Y-73750000D01*
X128502455Y-73764505D01*
X128419760Y-73819760D01*
X128364505Y-73902455D01*
X128345102Y-74000000D01*
X125000000Y-74000000D01*
X125250001Y-73749999D01*
X127900000Y-73749999D01*
X127900001Y-73750000D01*
X128349999Y-73750000D01*
X128350000Y-73749999D01*
X128850000Y-73749999D01*
X128850001Y-73750000D01*
X129299999Y-73750000D01*
X129300000Y-73749999D01*
X129300000Y-73480302D01*
X129299999Y-73480299D01*
X129288396Y-73421963D01*
X129244193Y-73355810D01*
X129244189Y-73355806D01*
X129178036Y-73311603D01*
X129119700Y-73300000D01*
X128850001Y-73300000D01*
X128850000Y-73300001D01*
X128850000Y-73749999D01*
X128350000Y-73749999D01*
X128350000Y-73300001D01*
X128349999Y-73300000D01*
X128080299Y-73300000D01*
X128021963Y-73311603D01*
X127955810Y-73355806D01*
X127955806Y-73355810D01*
X127911603Y-73421963D01*
X127900000Y-73480299D01*
X127900000Y-73749999D01*
X125250001Y-73749999D01*
X127994997Y-71005003D01*
X136944417Y-71005003D01*
X136964698Y-71210929D01*
X136964699Y-71210934D01*
X137024768Y-71408954D01*
X137122316Y-71591452D01*
X137253585Y-71751404D01*
X137253590Y-71751410D01*
X137253595Y-71751414D01*
X137413547Y-71882683D01*
X137413548Y-71882683D01*
X137413550Y-71882685D01*
X137596046Y-71980232D01*
X137733997Y-72022078D01*
X137794065Y-72040300D01*
X137794070Y-72040301D01*
X137999997Y-72060583D01*
X138000000Y-72060583D01*
X138000003Y-72060583D01*
X138205929Y-72040301D01*
X138205934Y-72040300D01*
X138403954Y-71980232D01*
X138586450Y-71882685D01*
X138746410Y-71751410D01*
X138877685Y-71591450D01*
X138975232Y-71408954D01*
X139035300Y-71210934D01*
X139035301Y-71210929D01*
X139055583Y-71005003D01*
X139055583Y-71004996D01*
X139035301Y-70799070D01*
X139035300Y-70799065D01*
X139017078Y-70738997D01*
X138975232Y-70601046D01*
X138877685Y-70418550D01*
X138746410Y-70258590D01*
X138746404Y-70258585D01*
X138586452Y-70127316D01*
X138403954Y-70029768D01*
X138205934Y-69969699D01*
X138205929Y-69969698D01*
X138000003Y-69949417D01*
X137999997Y-69949417D01*
X137794070Y-69969698D01*
X137794065Y-69969699D01*
X137596045Y-70029768D01*
X137413547Y-70127316D01*
X137253595Y-70258585D01*
X137253585Y-70258595D01*
X137122316Y-70418547D01*
X137024768Y-70601045D01*
X136964699Y-70799065D01*
X136964698Y-70799070D01*
X136944417Y-71004996D01*
X136944417Y-71005003D01*
X127994997Y-71005003D01*
X130534997Y-68465003D01*
X136944417Y-68465003D01*
X136964698Y-68670929D01*
X136964699Y-68670934D01*
X137024768Y-68868954D01*
X137122316Y-69051452D01*
X137240415Y-69195356D01*
X137253590Y-69211410D01*
X137253595Y-69211414D01*
X137413547Y-69342683D01*
X137413548Y-69342683D01*
X137413550Y-69342685D01*
X137596046Y-69440232D01*
X137733997Y-69482078D01*
X137794065Y-69500300D01*
X137794070Y-69500301D01*
X137999997Y-69520583D01*
X138000000Y-69520583D01*
X138000003Y-69520583D01*
X138205929Y-69500301D01*
X138205934Y-69500300D01*
X138403954Y-69440232D01*
X138586450Y-69342685D01*
X138746410Y-69211410D01*
X138877685Y-69051450D01*
X138975232Y-68868954D01*
X139035300Y-68670934D01*
X139035301Y-68670929D01*
X139055583Y-68465003D01*
X139055583Y-68464996D01*
X139035301Y-68259070D01*
X139035300Y-68259065D01*
X139017078Y-68198997D01*
X138975232Y-68061046D01*
X138877685Y-67878550D01*
X138816990Y-67804593D01*
X138746414Y-67718595D01*
X138746410Y-67718590D01*
X138717970Y-67695250D01*
X213022177Y-67695250D01*
X213041442Y-67964621D01*
X213098851Y-68228524D01*
X213193228Y-68481558D01*
X213193229Y-68481560D01*
X213322656Y-68718588D01*
X213322657Y-68718589D01*
X213414892Y-68841801D01*
X213922646Y-68334046D01*
X213969306Y-68409405D01*
X214116634Y-68571016D01*
X214273971Y-68689831D01*
X213768447Y-69195356D01*
X213891660Y-69287592D01*
X213891661Y-69287593D01*
X214128689Y-69417020D01*
X214128691Y-69417021D01*
X214381726Y-69511398D01*
X214381724Y-69511398D01*
X214645628Y-69568807D01*
X214915000Y-69588072D01*
X215184371Y-69568807D01*
X215448274Y-69511398D01*
X215701308Y-69417021D01*
X215701310Y-69417020D01*
X215938333Y-69287596D01*
X216061551Y-69195356D01*
X215556027Y-68689832D01*
X215713366Y-68571016D01*
X215860694Y-68409405D01*
X215907353Y-68334048D01*
X216415106Y-68841801D01*
X216507346Y-68718583D01*
X216636770Y-68481560D01*
X216636771Y-68481558D01*
X216731148Y-68228524D01*
X216788557Y-67964621D01*
X216807822Y-67695250D01*
X216788557Y-67425878D01*
X216731148Y-67161975D01*
X216636771Y-66908941D01*
X216636770Y-66908939D01*
X216507343Y-66671911D01*
X216507342Y-66671910D01*
X216415106Y-66548697D01*
X215907352Y-67056450D01*
X215860694Y-66981095D01*
X215713366Y-66819484D01*
X215556026Y-66700666D01*
X216061551Y-66195142D01*
X215938339Y-66102907D01*
X215938338Y-66102906D01*
X215701310Y-65973479D01*
X215701308Y-65973478D01*
X215448273Y-65879101D01*
X215448275Y-65879101D01*
X215184371Y-65821692D01*
X214915000Y-65802427D01*
X214645628Y-65821692D01*
X214381725Y-65879101D01*
X214128691Y-65973478D01*
X214128689Y-65973479D01*
X213891665Y-66102904D01*
X213768447Y-66195142D01*
X214273972Y-66700667D01*
X214116634Y-66819484D01*
X213969306Y-66981095D01*
X213922646Y-67056451D01*
X213414892Y-66548697D01*
X213322654Y-66671915D01*
X213193229Y-66908939D01*
X213193228Y-66908941D01*
X213098851Y-67161975D01*
X213041442Y-67425878D01*
X213022177Y-67695250D01*
X138717970Y-67695250D01*
X138717969Y-67695249D01*
X138586452Y-67587316D01*
X138403954Y-67489768D01*
X138205934Y-67429699D01*
X138205929Y-67429698D01*
X138000003Y-67409417D01*
X137999997Y-67409417D01*
X137794070Y-67429698D01*
X137794065Y-67429699D01*
X137596045Y-67489768D01*
X137413547Y-67587316D01*
X137253595Y-67718585D01*
X137253585Y-67718595D01*
X137122316Y-67878547D01*
X137024768Y-68061045D01*
X136964699Y-68259065D01*
X136964698Y-68259070D01*
X136944417Y-68464996D01*
X136944417Y-68465003D01*
X130534997Y-68465003D01*
X132000000Y-67000000D01*
X132000000Y-66794700D01*
X136950000Y-66794700D01*
X136961603Y-66853036D01*
X137005806Y-66919189D01*
X137005810Y-66919193D01*
X137071963Y-66963396D01*
X137130299Y-66974999D01*
X137130303Y-66975000D01*
X137749999Y-66975000D01*
X137750000Y-66974999D01*
X137750000Y-66360501D01*
X137857685Y-66409680D01*
X137964237Y-66425000D01*
X138035763Y-66425000D01*
X138142315Y-66409680D01*
X138250000Y-66360501D01*
X138250000Y-66974999D01*
X138250001Y-66975000D01*
X138869697Y-66975000D01*
X138869700Y-66974999D01*
X138928036Y-66963396D01*
X138994189Y-66919193D01*
X138994193Y-66919189D01*
X139038396Y-66853036D01*
X139049999Y-66794700D01*
X139050000Y-66794697D01*
X139050000Y-66175001D01*
X139049999Y-66175000D01*
X138433686Y-66175000D01*
X138459493Y-66134844D01*
X138500000Y-65996889D01*
X138500000Y-65853111D01*
X138459493Y-65715156D01*
X138433686Y-65675000D01*
X139049999Y-65675000D01*
X139050000Y-65674999D01*
X139050000Y-65055302D01*
X139049999Y-65055299D01*
X139038396Y-64996963D01*
X138994193Y-64930810D01*
X138994189Y-64930806D01*
X138928036Y-64886603D01*
X138869700Y-64875000D01*
X138250001Y-64875000D01*
X138250000Y-64875001D01*
X138250000Y-65489498D01*
X138142315Y-65440320D01*
X138035763Y-65425000D01*
X137964237Y-65425000D01*
X137857685Y-65440320D01*
X137750000Y-65489498D01*
X137750000Y-64875001D01*
X137749999Y-64875000D01*
X137130299Y-64875000D01*
X137071963Y-64886603D01*
X137005810Y-64930806D01*
X137005806Y-64930810D01*
X136961603Y-64996963D01*
X136950000Y-65055299D01*
X136950000Y-65674999D01*
X136950001Y-65675000D01*
X137566314Y-65675000D01*
X137540507Y-65715156D01*
X137500000Y-65853111D01*
X137500000Y-65996889D01*
X137540507Y-66134844D01*
X137566314Y-66175000D01*
X136950001Y-66175000D01*
X136950000Y-66175001D01*
X136950000Y-66794700D01*
X132000000Y-66794700D01*
X132000000Y-65128123D01*
X132014785Y-65076076D01*
X132074658Y-64979200D01*
X132114596Y-64942702D01*
X133429991Y-64285004D01*
X133448623Y-64277932D01*
X133463663Y-64273903D01*
X133677829Y-64174035D01*
X133683954Y-64169746D01*
X188849500Y-64169746D01*
X188849501Y-64169758D01*
X188861132Y-64228227D01*
X188861134Y-64228233D01*
X188894340Y-64277928D01*
X188905448Y-64294552D01*
X188971769Y-64338867D01*
X189016231Y-64347711D01*
X189030241Y-64350498D01*
X189030246Y-64350498D01*
X189030252Y-64350500D01*
X189030253Y-64350500D01*
X190769747Y-64350500D01*
X190769748Y-64350500D01*
X190828231Y-64338867D01*
X190894552Y-64294552D01*
X190938867Y-64228231D01*
X190950500Y-64169748D01*
X190950500Y-63300003D01*
X191384417Y-63300003D01*
X191404698Y-63505929D01*
X191404699Y-63505934D01*
X191464768Y-63703954D01*
X191562316Y-63886452D01*
X191693302Y-64046059D01*
X191693590Y-64046410D01*
X191693595Y-64046414D01*
X191853547Y-64177683D01*
X191853548Y-64177683D01*
X191853550Y-64177685D01*
X192036046Y-64275232D01*
X192173997Y-64317078D01*
X192234065Y-64335300D01*
X192234070Y-64335301D01*
X192439997Y-64355583D01*
X192440000Y-64355583D01*
X192440003Y-64355583D01*
X192645929Y-64335301D01*
X192645934Y-64335300D01*
X192691720Y-64321411D01*
X192843954Y-64275232D01*
X193026450Y-64177685D01*
X193186410Y-64046410D01*
X193317685Y-63886450D01*
X193415232Y-63703954D01*
X193475300Y-63505934D01*
X193475301Y-63505929D01*
X193495583Y-63300003D01*
X193495583Y-63299996D01*
X193475301Y-63094070D01*
X193475300Y-63094065D01*
X193461933Y-63049999D01*
X193958588Y-63049999D01*
X193958589Y-63050000D01*
X194546314Y-63050000D01*
X194520507Y-63090156D01*
X194480000Y-63228111D01*
X194480000Y-63371889D01*
X194520507Y-63509844D01*
X194546314Y-63550000D01*
X193958589Y-63550000D01*
X194005232Y-63703762D01*
X194005234Y-63703767D01*
X194102724Y-63886160D01*
X194102731Y-63886170D01*
X194233940Y-64046050D01*
X194233949Y-64046059D01*
X194393829Y-64177268D01*
X194393839Y-64177275D01*
X194576232Y-64274765D01*
X194576237Y-64274767D01*
X194729999Y-64321411D01*
X194730000Y-64321411D01*
X194730000Y-63735501D01*
X194837685Y-63784680D01*
X194944237Y-63800000D01*
X195015763Y-63800000D01*
X195122315Y-63784680D01*
X195230000Y-63735501D01*
X195230000Y-64321411D01*
X195383762Y-64274767D01*
X195383767Y-64274765D01*
X195566160Y-64177275D01*
X195566170Y-64177268D01*
X195726050Y-64046059D01*
X195726059Y-64046050D01*
X195857268Y-63886170D01*
X195857275Y-63886160D01*
X195954765Y-63703767D01*
X195954767Y-63703762D01*
X196001411Y-63550000D01*
X195413686Y-63550000D01*
X195439493Y-63509844D01*
X195480000Y-63371889D01*
X195480000Y-63228111D01*
X195439493Y-63090156D01*
X195413686Y-63050000D01*
X196001411Y-63050000D01*
X196001411Y-63049999D01*
X195954767Y-62896237D01*
X195954765Y-62896232D01*
X195857275Y-62713839D01*
X195857268Y-62713829D01*
X195726059Y-62553949D01*
X195726050Y-62553940D01*
X195566170Y-62422731D01*
X195566160Y-62422724D01*
X195383771Y-62325236D01*
X195383758Y-62325231D01*
X195230000Y-62278588D01*
X195230000Y-62864498D01*
X195122315Y-62815320D01*
X195015763Y-62800000D01*
X194944237Y-62800000D01*
X194837685Y-62815320D01*
X194730000Y-62864498D01*
X194730000Y-62278588D01*
X194576241Y-62325231D01*
X194576228Y-62325236D01*
X194393839Y-62422724D01*
X194393829Y-62422731D01*
X194233949Y-62553940D01*
X194233940Y-62553949D01*
X194102731Y-62713829D01*
X194102724Y-62713839D01*
X194005234Y-62896232D01*
X194005232Y-62896237D01*
X193958588Y-63049999D01*
X193461933Y-63049999D01*
X193437423Y-62969202D01*
X193415232Y-62896046D01*
X193317685Y-62713550D01*
X193186410Y-62553590D01*
X193036123Y-62430253D01*
X193026452Y-62422316D01*
X192843954Y-62324768D01*
X192645934Y-62264699D01*
X192645929Y-62264698D01*
X192440003Y-62244417D01*
X192439997Y-62244417D01*
X192234070Y-62264698D01*
X192234065Y-62264699D01*
X192036045Y-62324768D01*
X191853547Y-62422316D01*
X191693595Y-62553585D01*
X191693585Y-62553595D01*
X191562316Y-62713547D01*
X191464768Y-62896045D01*
X191404699Y-63094065D01*
X191404698Y-63094070D01*
X191384417Y-63299996D01*
X191384417Y-63300003D01*
X190950500Y-63300003D01*
X190950500Y-62430252D01*
X190948921Y-62422316D01*
X190947711Y-62416231D01*
X190938867Y-62371769D01*
X190894552Y-62305448D01*
X190854354Y-62278588D01*
X190828233Y-62261134D01*
X190828231Y-62261133D01*
X190828228Y-62261132D01*
X190828227Y-62261132D01*
X190769758Y-62249501D01*
X190769748Y-62249500D01*
X189030252Y-62249500D01*
X189030251Y-62249500D01*
X189030241Y-62249501D01*
X188971772Y-62261132D01*
X188971766Y-62261134D01*
X188905451Y-62305445D01*
X188905445Y-62305451D01*
X188861134Y-62371766D01*
X188861132Y-62371772D01*
X188849501Y-62430241D01*
X188849500Y-62430253D01*
X188849500Y-64169746D01*
X133683954Y-64169746D01*
X133736548Y-64132919D01*
X133749028Y-64125485D01*
X134000000Y-64000000D01*
X135900244Y-63049876D01*
X135921773Y-63042073D01*
X136088783Y-63002648D01*
X136111528Y-63000000D01*
X165899999Y-63000000D01*
X165900000Y-63000000D01*
X166000000Y-63000000D01*
X167915368Y-61084631D01*
X167947482Y-61063174D01*
X167997861Y-61042307D01*
X168081808Y-61007536D01*
X168119693Y-61000000D01*
X186892017Y-61000000D01*
X186907875Y-61001278D01*
G37*
%TD.AperFunction*%
%TD*%
M02*
