%TF.GenerationSoftware,KiCad,Pcbnew,7.0.10*%
%TF.CreationDate,2025-04-28T11:59:33+02:00*%
%TF.ProjectId,projekt,70726f6a-656b-4742-9e6b-696361645f70,rev?*%
%TF.SameCoordinates,Original*%
%TF.FileFunction,Copper,L1,Top*%
%TF.FilePolarity,Positive*%
%FSLAX46Y46*%
G04 Gerber Fmt 4.6, Leading zero omitted, Abs format (unit mm)*
G04 Created by KiCad (PCBNEW 7.0.10) date 2025-04-28 11:59:33*
%MOMM*%
%LPD*%
G01*
G04 APERTURE LIST*
G04 Aperture macros list*
%AMRoundRect*
0 Rectangle with rounded corners*
0 $1 Rounding radius*
0 $2 $3 $4 $5 $6 $7 $8 $9 X,Y pos of 4 corners*
0 Add a 4 corners polygon primitive as box body*
4,1,4,$2,$3,$4,$5,$6,$7,$8,$9,$2,$3,0*
0 Add four circle primitives for the rounded corners*
1,1,$1+$1,$2,$3*
1,1,$1+$1,$4,$5*
1,1,$1+$1,$6,$7*
1,1,$1+$1,$8,$9*
0 Add four rect primitives between the rounded corners*
20,1,$1+$1,$2,$3,$4,$5,0*
20,1,$1+$1,$4,$5,$6,$7,0*
20,1,$1+$1,$6,$7,$8,$9,0*
20,1,$1+$1,$8,$9,$2,$3,0*%
%AMFreePoly0*
4,1,82,2.150354,0.350354,2.150500,0.350000,2.150500,-1.250000,2.150354,-1.250354,2.150000,-1.250500,1.180000,-1.250500,1.179930,-1.250471,1.179854,-1.250479,1.179759,-1.250400,1.179646,-1.250354,1.179616,-1.250282,1.179559,-1.250235,1.138558,-1.173234,1.120565,-1.139248,1.094578,-1.098268,1.063584,-1.052278,1.035602,-1.013304,1.001612,-0.972315,0.975627,-0.940333,0.948634,-0.911341,
0.914645,-0.877352,0.878661,-0.842368,0.851667,-0.818372,0.825688,-0.795391,0.791705,-0.769404,0.754704,-0.742403,0.724712,-0.721408,0.697723,-0.703416,0.645748,-0.670432,0.596776,-0.645447,0.532796,-0.613457,0.472821,-0.588467,0.446836,-0.579472,0.446832,-0.579468,0.446827,-0.579469,0.408849,-0.565477,0.367848,-0.552476,0.323867,-0.540481,0.280902,-0.529490,0.248917,-0.524493,
0.206914,-0.517493,0.160930,-0.509495,0.116966,-0.505499,0.072980,-0.502500,0.022980,-0.500500,-0.038996,-0.500500,-0.079955,-0.502498,-0.134955,-0.507497,-0.192926,-0.514494,-0.249889,-0.524488,-0.293894,-0.534489,-0.339876,-0.544485,-0.392855,-0.560478,-0.436817,-0.575465,-0.480811,-0.593463,-0.480816,-0.593462,-0.480821,-0.593467,-0.540791,-0.616455,-0.590769,-0.642444,-0.638747,-0.667431,
-0.707726,-0.710417,-0.779692,-0.759395,-0.859666,-0.824372,-0.941634,-0.902342,-1.013612,-0.985316,-1.069591,-1.060288,-1.130567,-1.157250,-1.179558,-1.250233,-1.179616,-1.250281,-1.179646,-1.250354,-1.179759,-1.250400,-1.179852,-1.250478,-1.179929,-1.250470,-1.180000,-1.250500,-2.150000,-1.250500,-2.150354,-1.250354,-2.150500,-1.250000,-2.150500,0.350000,-2.150354,0.350354,-2.150000,0.350500,
2.150000,0.350500,2.150354,0.350354,2.150354,0.350354,$1*%
%AMFreePoly1*
4,1,82,-1.179930,1.250471,-1.179854,1.250479,-1.179759,1.250400,-1.179646,1.250354,-1.179616,1.250282,-1.179559,1.250235,-1.138558,1.173234,-1.120565,1.139248,-1.094585,1.098279,-1.063594,1.052292,-1.035602,1.013304,-1.001612,0.972315,-0.975627,0.940333,-0.948646,0.911354,-0.914651,0.877358,-0.878661,0.842368,-0.851667,0.818372,-0.825680,0.795384,-0.791705,0.769404,-0.754713,0.742410,
-0.724723,0.721416,-0.697732,0.703422,-0.645748,0.670432,-0.596776,0.645447,-0.532801,0.613459,-0.472812,0.588463,-0.446836,0.579472,-0.446832,0.579468,-0.446827,0.579469,-0.408849,0.565477,-0.367848,0.552476,-0.323868,0.540482,-0.280902,0.529490,-0.248918,0.524493,-0.206914,0.517493,-0.160931,0.509495,-0.116966,0.505499,-0.072980,0.502500,-0.022980,0.500500,0.038996,0.500500,
0.079955,0.502498,0.134955,0.507497,0.192929,0.514494,0.249900,0.524490,0.293894,0.534489,0.339875,0.544485,0.392856,0.560478,0.436817,0.575465,0.480810,0.593463,0.480816,0.593462,0.480821,0.593467,0.540791,0.616455,0.590771,0.642444,0.638753,0.667435,0.707726,0.710417,0.779699,0.759399,0.859666,0.824373,0.941636,0.902344,1.013606,0.985309,1.069591,1.060288,
1.130567,1.157250,1.179558,1.250233,1.179616,1.250281,1.179646,1.250354,1.179759,1.250400,1.179852,1.250478,1.179929,1.250470,1.180000,1.250500,2.150000,1.250500,2.150354,1.250354,2.150500,1.250000,2.150500,-0.350000,2.150354,-0.350354,2.150000,-0.350500,-2.150000,-0.350500,-2.150354,-0.350354,-2.150500,-0.350000,-2.150500,1.250000,-2.150354,1.250354,-2.150000,1.250500,
-1.180000,1.250500,-1.179930,1.250471,-1.179930,1.250471,$1*%
G04 Aperture macros list end*
%TA.AperFunction,SMDPad,CuDef*%
%ADD10RoundRect,0.200000X0.200000X0.275000X-0.200000X0.275000X-0.200000X-0.275000X0.200000X-0.275000X0*%
%TD*%
%TA.AperFunction,SMDPad,CuDef*%
%ADD11R,7.460000X6.470000*%
%TD*%
%TA.AperFunction,SMDPad,CuDef*%
%ADD12RoundRect,0.218750X-0.218750X-0.256250X0.218750X-0.256250X0.218750X0.256250X-0.218750X0.256250X0*%
%TD*%
%TA.AperFunction,ComponentPad*%
%ADD13R,1.000000X1.000000*%
%TD*%
%TA.AperFunction,SMDPad,CuDef*%
%ADD14RoundRect,0.200000X-0.200000X-0.275000X0.200000X-0.275000X0.200000X0.275000X-0.200000X0.275000X0*%
%TD*%
%TA.AperFunction,ComponentPad*%
%ADD15R,1.700000X1.700000*%
%TD*%
%TA.AperFunction,ComponentPad*%
%ADD16O,1.700000X1.700000*%
%TD*%
%TA.AperFunction,SMDPad,CuDef*%
%ADD17RoundRect,0.225000X0.250000X-0.225000X0.250000X0.225000X-0.250000X0.225000X-0.250000X-0.225000X0*%
%TD*%
%TA.AperFunction,SMDPad,CuDef*%
%ADD18FreePoly0,90.000000*%
%TD*%
%TA.AperFunction,SMDPad,CuDef*%
%ADD19FreePoly1,90.000000*%
%TD*%
%TA.AperFunction,SMDPad,CuDef*%
%ADD20RoundRect,0.033750X-0.101250X0.346250X-0.101250X-0.346250X0.101250X-0.346250X0.101250X0.346250X0*%
%TD*%
%TA.AperFunction,SMDPad,CuDef*%
%ADD21R,1.300000X0.900000*%
%TD*%
%TA.AperFunction,SMDPad,CuDef*%
%ADD22RoundRect,0.225000X-0.250000X0.225000X-0.250000X-0.225000X0.250000X-0.225000X0.250000X0.225000X0*%
%TD*%
%TA.AperFunction,SMDPad,CuDef*%
%ADD23R,1.350000X0.400000*%
%TD*%
%TA.AperFunction,SMDPad,CuDef*%
%ADD24R,1.600000X2.100000*%
%TD*%
%TA.AperFunction,SMDPad,CuDef*%
%ADD25R,1.900000X1.800000*%
%TD*%
%TA.AperFunction,SMDPad,CuDef*%
%ADD26R,1.900000X1.900000*%
%TD*%
%TA.AperFunction,SMDPad,CuDef*%
%ADD27RoundRect,0.200000X0.275000X-0.200000X0.275000X0.200000X-0.275000X0.200000X-0.275000X-0.200000X0*%
%TD*%
%TA.AperFunction,ComponentPad*%
%ADD28C,1.000000*%
%TD*%
%TA.AperFunction,SMDPad,CuDef*%
%ADD29RoundRect,0.225000X0.225000X0.250000X-0.225000X0.250000X-0.225000X-0.250000X0.225000X-0.250000X0*%
%TD*%
%TA.AperFunction,SMDPad,CuDef*%
%ADD30RoundRect,0.065000X0.355000X0.065000X-0.355000X0.065000X-0.355000X-0.065000X0.355000X-0.065000X0*%
%TD*%
%TA.AperFunction,SMDPad,CuDef*%
%ADD31RoundRect,0.065000X0.065000X0.355000X-0.065000X0.355000X-0.065000X-0.355000X0.065000X-0.355000X0*%
%TD*%
%TA.AperFunction,SMDPad,CuDef*%
%ADD32R,2.700000X2.700000*%
%TD*%
%TA.AperFunction,SMDPad,CuDef*%
%ADD33R,2.880000X1.120000*%
%TD*%
%TA.AperFunction,ComponentPad*%
%ADD34C,3.376000*%
%TD*%
%TA.AperFunction,SMDPad,CuDef*%
%ADD35R,1.150000X0.350000*%
%TD*%
%TA.AperFunction,SMDPad,CuDef*%
%ADD36R,1.450000X0.200000*%
%TD*%
%TA.AperFunction,SMDPad,CuDef*%
%ADD37R,0.450000X0.250000*%
%TD*%
%TA.AperFunction,ViaPad*%
%ADD38C,0.750000*%
%TD*%
%TA.AperFunction,Conductor*%
%ADD39C,0.200000*%
%TD*%
%TA.AperFunction,Conductor*%
%ADD40C,0.750000*%
%TD*%
G04 APERTURE END LIST*
D10*
%TO.P,R2,1*%
%TO.N,V_MCU_LOGIC*%
X144000000Y-76500000D03*
%TO.P,R2,2*%
%TO.N,/SDA*%
X142350000Y-76500000D03*
%TD*%
D11*
%TO.P,BT1,P*%
%TO.N,+BATT*%
X130265000Y-89000000D03*
%TO.P,BT1,N*%
%TO.N,GND*%
X209605000Y-89000000D03*
%TD*%
D12*
%TO.P,D1,1,K*%
%TO.N,/PG*%
X169712500Y-68400000D03*
%TO.P,D1,2,A*%
%TO.N,Net-(D1-A)*%
X171287500Y-68400000D03*
%TD*%
D13*
%TO.P,TP4,1,1*%
%TO.N,GND*%
X193900000Y-73600000D03*
%TD*%
D10*
%TO.P,R1,1*%
%TO.N,V_MCU_LOGIC*%
X144000000Y-73650000D03*
%TO.P,R1,2*%
%TO.N,/SCL*%
X142350000Y-73650000D03*
%TD*%
D14*
%TO.P,R16,1*%
%TO.N,Net-(D3-A)*%
X173825000Y-62300000D03*
%TO.P,R16,2*%
%TO.N,V_LOAD*%
X175475000Y-62300000D03*
%TD*%
D10*
%TO.P,R9,1*%
%TO.N,Net-(U3-PROG1)*%
X158200000Y-68200000D03*
%TO.P,R9,2*%
%TO.N,GND*%
X156550000Y-68200000D03*
%TD*%
D15*
%TO.P,J2,1,Pin_1*%
%TO.N,V_LOAD*%
X189900000Y-63300000D03*
D16*
%TO.P,J2,2,Pin_2*%
%TO.N,/EN*%
X192440000Y-63300000D03*
%TO.P,J2,3,Pin_3*%
%TO.N,GND*%
X194980000Y-63300000D03*
%TD*%
D10*
%TO.P,RT1,1*%
%TO.N,Net-(U3-THERM)*%
X174325000Y-71700000D03*
%TO.P,RT1,2*%
%TO.N,Net-(RT1-Pad2)*%
X172675000Y-71700000D03*
%TD*%
D17*
%TO.P,C1,1*%
%TO.N,+BATT*%
X150200000Y-68250000D03*
%TO.P,C1,2*%
%TO.N,GND*%
X150200000Y-66700000D03*
%TD*%
D13*
%TO.P,TP1,1,1*%
%TO.N,GND*%
X147100000Y-76700000D03*
%TD*%
D17*
%TO.P,C5,1*%
%TO.N,+5V_CHARGE*%
X129000000Y-80075000D03*
%TO.P,C5,2*%
%TO.N,GND*%
X129000000Y-78525000D03*
%TD*%
D14*
%TO.P,R15,1*%
%TO.N,Net-(D2-A)*%
X173825000Y-65255000D03*
%TO.P,R15,2*%
%TO.N,+5V_CHARGE*%
X175475000Y-65255000D03*
%TD*%
D10*
%TO.P,R6,1*%
%TO.N,GND*%
X169925000Y-73500000D03*
%TO.P,R6,2*%
%TO.N,Net-(U3-VPCC)*%
X168275000Y-73500000D03*
%TD*%
D15*
%TO.P,J1,1,Pin_1*%
%TO.N,GND*%
X138000000Y-65925000D03*
D16*
%TO.P,J1,2,Pin_2*%
%TO.N,V_MCU_LOGIC*%
X138000000Y-68465000D03*
%TO.P,J1,3,Pin_3*%
%TO.N,/INT*%
X138000000Y-71005000D03*
%TO.P,J1,4,Pin_4*%
%TO.N,/SCL*%
X138000000Y-73545000D03*
%TO.P,J1,5,Pin_5*%
%TO.N,/SDA*%
X138000000Y-76085000D03*
%TD*%
D14*
%TO.P,R14,1*%
%TO.N,Net-(D1-A)*%
X173825000Y-68300000D03*
%TO.P,R14,2*%
%TO.N,+5V_CHARGE*%
X175475000Y-68300000D03*
%TD*%
D10*
%TO.P,R10,1*%
%TO.N,Net-(U3-PROG3)*%
X158200000Y-65700000D03*
%TO.P,R10,2*%
%TO.N,GND*%
X156550000Y-65700000D03*
%TD*%
D18*
%TO.P,L1,1,1*%
%TO.N,V_LOAD*%
X179500000Y-73500000D03*
D19*
%TO.P,L1,2,2*%
%TO.N,Net-(U2-SW)*%
X183100000Y-73500000D03*
%TD*%
D20*
%TO.P,U1,1,CTG*%
%TO.N,GND*%
X149125000Y-70617500D03*
%TO.P,U1,2,CELL*%
%TO.N,+BATT*%
X148625000Y-70617500D03*
%TO.P,U1,3,VDD*%
X148125000Y-70617500D03*
%TO.P,U1,4,GND*%
%TO.N,GND*%
X147625000Y-70617500D03*
%TO.P,U1,5,~{ALERT}*%
%TO.N,/INT*%
X147625000Y-72587500D03*
%TO.P,U1,6,QSTRT*%
%TO.N,GND*%
X148125000Y-72587500D03*
%TO.P,U1,7,SCL*%
%TO.N,/SCL*%
X148625000Y-72587500D03*
%TO.P,U1,8,SDA*%
%TO.N,/SDA*%
X149125000Y-72587500D03*
D21*
%TO.P,U1,9,EP*%
%TO.N,GND*%
X148375000Y-71602500D03*
%TD*%
D22*
%TO.P,C8,1*%
%TO.N,+BATT*%
X158800000Y-71025000D03*
%TO.P,C8,2*%
%TO.N,GND*%
X158800000Y-72575000D03*
%TD*%
D17*
%TO.P,C3,1*%
%TO.N,V_LOAD*%
X180400000Y-68775000D03*
%TO.P,C3,2*%
%TO.N,GND*%
X180400000Y-67225000D03*
%TD*%
D10*
%TO.P,R4,1*%
%TO.N,+5V_OUT*%
X184925000Y-63650000D03*
%TO.P,R4,2*%
%TO.N,Net-(U2-FB)*%
X183275000Y-63650000D03*
%TD*%
D13*
%TO.P,TP3,1,1*%
%TO.N,GND*%
X189600000Y-76300000D03*
%TD*%
D12*
%TO.P,D4,1,K*%
%TO.N,Net-(D4-K)*%
X204012500Y-76300000D03*
%TO.P,D4,2,A*%
%TO.N,+5V_OUT*%
X205587500Y-76300000D03*
%TD*%
D10*
%TO.P,R3,1*%
%TO.N,V_MCU_LOGIC*%
X144000000Y-70800000D03*
%TO.P,R3,2*%
%TO.N,/INT*%
X142350000Y-70800000D03*
%TD*%
%TO.P,R5,1*%
%TO.N,+5V_CHARGE*%
X169925000Y-76200000D03*
%TO.P,R5,2*%
%TO.N,Net-(U3-VPCC)*%
X168275000Y-76200000D03*
%TD*%
%TO.P,R7,1*%
%TO.N,Net-(U2-FB)*%
X180525000Y-63650000D03*
%TO.P,R7,2*%
%TO.N,GND*%
X178875000Y-63650000D03*
%TD*%
D23*
%TO.P,J5,1,VUSB*%
%TO.N,+5V_CHARGE*%
X124115500Y-78680750D03*
%TO.P,J5,2,D-*%
%TO.N,unconnected-(J5-D--Pad2)*%
X124115500Y-79330750D03*
%TO.P,J5,3,D+*%
%TO.N,unconnected-(J5-D+-Pad3)*%
X124115500Y-79980750D03*
%TO.P,J5,4,ID*%
%TO.N,unconnected-(J5-ID-Pad4)*%
X124115500Y-80630750D03*
%TO.P,J5,5,GND*%
%TO.N,GND*%
X124115500Y-81280750D03*
D24*
%TO.P,J5,SH1,SHIELD*%
X123990500Y-76880750D03*
%TO.P,J5,SH2,SHIELD*%
X123990500Y-83080750D03*
D25*
%TO.P,J5,SH3,SHIELD*%
X121440500Y-76180750D03*
D26*
%TO.P,J5,SH4,SHIELD*%
X121440500Y-78780750D03*
%TO.P,J5,SH5,SHIELD*%
X121440500Y-81180750D03*
D25*
%TO.P,J5,SH6,SHIELD*%
X121440500Y-83780750D03*
%TD*%
D27*
%TO.P,R13,1*%
%TO.N,/D-*%
X205300000Y-67850000D03*
%TO.P,R13,2*%
%TO.N,GND*%
X205300000Y-66200000D03*
%TD*%
D28*
%TO.P,TP7,1,1*%
%TO.N,V_LOAD*%
X186500000Y-76300000D03*
%TD*%
D29*
%TO.P,C2,1*%
%TO.N,+BATT*%
X146775000Y-68100000D03*
%TO.P,C2,2*%
%TO.N,GND*%
X145225000Y-68100000D03*
%TD*%
D10*
%TO.P,R17,1*%
%TO.N,Net-(D4-K)*%
X200625000Y-76260000D03*
%TO.P,R17,2*%
%TO.N,GND*%
X198975000Y-76260000D03*
%TD*%
D29*
%TO.P,C9,1*%
%TO.N,V_LOAD*%
X165975000Y-74400000D03*
%TO.P,C9,2*%
%TO.N,GND*%
X164425000Y-74400000D03*
%TD*%
D22*
%TO.P,C4,1*%
%TO.N,+5V_OUT*%
X188700000Y-66825000D03*
%TO.P,C4,2*%
%TO.N,GND*%
X188700000Y-68375000D03*
%TD*%
D28*
%TO.P,TP8,1,1*%
%TO.N,+5V_OUT*%
X197000000Y-73600000D03*
%TD*%
%TO.P,TP5,1,1*%
%TO.N,+BATT*%
X150200000Y-76700000D03*
%TD*%
D22*
%TO.P,C7,1*%
%TO.N,+5V_OUT*%
X192200000Y-66850000D03*
%TO.P,C7,2*%
%TO.N,GND*%
X192200000Y-68400000D03*
%TD*%
D27*
%TO.P,R12,1*%
%TO.N,+5V_OUT*%
X205300000Y-72850000D03*
%TO.P,R12,2*%
%TO.N,/D-*%
X205300000Y-71200000D03*
%TD*%
D14*
%TO.P,TH1,2*%
%TO.N,Net-(RT1-Pad2)*%
X174325000Y-87200000D03*
%TO.P,TH1,1*%
%TO.N,GND*%
X172675000Y-87200000D03*
%TD*%
D10*
%TO.P,RT2,1*%
%TO.N,Net-(RT1-Pad2)*%
X174325000Y-74600000D03*
%TO.P,RT2,2*%
%TO.N,GND*%
X172675000Y-74600000D03*
%TD*%
D12*
%TO.P,D3,1,K*%
%TO.N,/LBO*%
X169712500Y-62340000D03*
%TO.P,D3,2,A*%
%TO.N,Net-(D3-A)*%
X171287500Y-62340000D03*
%TD*%
D30*
%TO.P,U3,1,OUT*%
%TO.N,V_LOAD*%
X166100000Y-70100000D03*
%TO.P,U3,2,VPCC*%
%TO.N,Net-(U3-VPCC)*%
X166100000Y-69600000D03*
%TO.P,U3,3,SEL*%
%TO.N,+5V_CHARGE*%
X166100000Y-69100000D03*
%TO.P,U3,4,PROG2*%
X166100000Y-68600000D03*
%TO.P,U3,5,THERM*%
%TO.N,Net-(U3-THERM)*%
X166100000Y-68100000D03*
D31*
%TO.P,U3,6,~{PG}*%
%TO.N,/PG*%
X165165000Y-67165000D03*
%TO.P,U3,7,STAT2*%
%TO.N,/STAT2*%
X164665000Y-67165000D03*
%TO.P,U3,8,STAT1/\u002ALBO*%
%TO.N,/LBO*%
X164165000Y-67165000D03*
%TO.P,U3,9,~{TE}*%
%TO.N,+5V_CHARGE*%
X163665000Y-67165000D03*
%TO.P,U3,10,VSS*%
%TO.N,GND*%
X163165000Y-67165000D03*
D30*
%TO.P,U3,11,VSS*%
X162230000Y-68100000D03*
%TO.P,U3,12,PROG3*%
%TO.N,Net-(U3-PROG3)*%
X162230000Y-68600000D03*
%TO.P,U3,13,PROG1*%
%TO.N,Net-(U3-PROG1)*%
X162230000Y-69100000D03*
%TO.P,U3,14,VBAT*%
%TO.N,+BATT*%
X162230000Y-69600000D03*
%TO.P,U3,15,VBAT*%
X162230000Y-70100000D03*
D31*
%TO.P,U3,16,VBAT_SENSE*%
X163165000Y-71035000D03*
%TO.P,U3,17,CE*%
%TO.N,+5V_CHARGE*%
X163665000Y-71035000D03*
%TO.P,U3,18,IN*%
X164165000Y-71035000D03*
%TO.P,U3,19,IN*%
X164665000Y-71035000D03*
%TO.P,U3,20,OUT*%
%TO.N,V_LOAD*%
X165165000Y-71035000D03*
D32*
%TO.P,U3,21,EP*%
%TO.N,GND*%
X164165000Y-69100000D03*
%TD*%
D27*
%TO.P,R8,1*%
%TO.N,+5V_OUT*%
X201300000Y-72850000D03*
%TO.P,R8,2*%
%TO.N,/D+*%
X201300000Y-71200000D03*
%TD*%
D28*
%TO.P,TP6,1,1*%
%TO.N,+5V_CHARGE*%
X131700000Y-74000000D03*
%TD*%
D33*
%TO.P,J4,01,VCC*%
%TO.N,+5V_OUT*%
X211335000Y-77765250D03*
%TO.P,J4,02,D-*%
%TO.N,/D-*%
X211335000Y-75265250D03*
%TO.P,J4,03,D+*%
%TO.N,/D+*%
X211335000Y-73265250D03*
%TO.P,J4,04,GND*%
%TO.N,GND*%
X211335000Y-70765250D03*
D34*
%TO.P,J4,SH1,SHIELD*%
X214915000Y-80835250D03*
%TO.P,J4,SH2,SHIELD*%
X214915000Y-67695250D03*
%TD*%
D22*
%TO.P,C6,1*%
%TO.N,+5V_OUT*%
X195700000Y-66850000D03*
%TO.P,C6,2*%
%TO.N,GND*%
X195700000Y-68400000D03*
%TD*%
D35*
%TO.P,U2,1,GND*%
%TO.N,GND*%
X185161000Y-68150000D03*
D36*
%TO.P,U2,2,SW*%
%TO.N,Net-(U2-SW)*%
X185011000Y-67600000D03*
D35*
%TO.P,U2,3,VOUT*%
%TO.N,+5V_OUT*%
X185161000Y-67050000D03*
D37*
%TO.P,U2,4,FB*%
%TO.N,Net-(U2-FB)*%
X183561000Y-66850000D03*
%TO.P,U2,5,EN*%
%TO.N,/EN*%
X183561000Y-67350000D03*
%TO.P,U2,6,MODE*%
%TO.N,GND*%
X183561000Y-67850000D03*
%TO.P,U2,7,VIN*%
%TO.N,V_LOAD*%
X183561000Y-68350000D03*
%TD*%
D13*
%TO.P,TP2,1,1*%
%TO.N,GND*%
X128600000Y-74000000D03*
%TD*%
D27*
%TO.P,R11,1*%
%TO.N,/D+*%
X201300000Y-67850000D03*
%TO.P,R11,2*%
%TO.N,GND*%
X201300000Y-66200000D03*
%TD*%
D12*
%TO.P,D2,1,K*%
%TO.N,/STAT2*%
X169712500Y-65300000D03*
%TO.P,D2,2,A*%
%TO.N,Net-(D2-A)*%
X171287500Y-65300000D03*
%TD*%
D38*
%TO.N,GND*%
X172100000Y-85600000D03*
X163600000Y-69700000D03*
X155100000Y-68200000D03*
X147100000Y-73800000D03*
X155100000Y-65700000D03*
X197200000Y-76300000D03*
X206900000Y-66000000D03*
X212300000Y-70800000D03*
X163750000Y-76050000D03*
X157200000Y-73600000D03*
X211300000Y-70800000D03*
X195700000Y-69800000D03*
X150300000Y-70700000D03*
X210300000Y-70800000D03*
X188700000Y-69800000D03*
X151400000Y-65500000D03*
X164700000Y-69700000D03*
X177800000Y-63700000D03*
X127300000Y-76100000D03*
X211600000Y-89000000D03*
X129900000Y-77100000D03*
X192200000Y-69700000D03*
X211600000Y-91000000D03*
X209600000Y-91000000D03*
X125300000Y-83700000D03*
X202700000Y-65900000D03*
X211600000Y-87000000D03*
X207600000Y-89000000D03*
X179300000Y-67200000D03*
X207600000Y-91000000D03*
X146300000Y-70200000D03*
X209600000Y-87000000D03*
X209600000Y-89000000D03*
X163600000Y-68500000D03*
X164700000Y-68500000D03*
X125300000Y-81700000D03*
X144600000Y-66300000D03*
X150100000Y-71900000D03*
X207600000Y-87000000D03*
X172800000Y-75800000D03*
X169200000Y-72400000D03*
X125300000Y-82700000D03*
%TD*%
D39*
%TO.N,GND*%
X172675000Y-86175000D02*
X172100000Y-85600000D01*
X172675000Y-87200000D02*
X172675000Y-86175000D01*
%TO.N,Net-(RT1-Pad2)*%
X174325000Y-87200000D02*
X174325000Y-74600000D01*
D40*
%TO.N,V_LOAD*%
X169000000Y-88000000D02*
X169000000Y-79000000D01*
X165975000Y-75975000D02*
X165975000Y-74400000D01*
X172000000Y-91000000D02*
X169000000Y-88000000D01*
X176100000Y-91000000D02*
X172000000Y-91000000D01*
X178000000Y-89100000D02*
X176100000Y-91000000D01*
X179550000Y-79000000D02*
X178000000Y-80550000D01*
X178000000Y-80550000D02*
X178000000Y-89100000D01*
X169000000Y-79000000D02*
X165975000Y-75975000D01*
%TO.N,+BATT*%
X149950000Y-68250000D02*
X150650000Y-68250000D01*
X152901551Y-70501551D02*
X152901551Y-76101551D01*
X146775000Y-68458162D02*
X148158419Y-69841581D01*
D39*
X150200000Y-76700000D02*
X150200000Y-78803102D01*
D40*
X150650000Y-68250000D02*
X152901551Y-70501551D01*
X152901551Y-76101551D02*
X158003102Y-71000000D01*
X158003102Y-71000000D02*
X162300000Y-71000000D01*
X150001551Y-79001551D02*
X152901551Y-76101551D01*
X146775000Y-68100000D02*
X146775000Y-68458162D01*
X140003102Y-89000000D02*
X150001551Y-79001551D01*
X148800000Y-69400000D02*
X149950000Y-68250000D01*
D39*
X150200000Y-78803102D02*
X150001551Y-79001551D01*
D40*
X130265000Y-89000000D02*
X140003102Y-89000000D01*
X148800000Y-69600000D02*
X148800000Y-69400000D01*
%TO.N,GND*%
X195700000Y-68400000D02*
X195700000Y-69800000D01*
D39*
X205300000Y-66200000D02*
X206700000Y-66200000D01*
D40*
X122140500Y-76880750D02*
X121440500Y-76180750D01*
X146717500Y-70617500D02*
X147415000Y-70617500D01*
X124771250Y-76100000D02*
X123990500Y-76880750D01*
D39*
X148125000Y-72587500D02*
X148125000Y-73007928D01*
D40*
X192200000Y-68400000D02*
X192200000Y-69700000D01*
X145225000Y-68100000D02*
X145225000Y-66925000D01*
X188700000Y-68375000D02*
X188700000Y-69800000D01*
X164425000Y-75375000D02*
X164425000Y-74400000D01*
X146300000Y-70200000D02*
X146717500Y-70617500D01*
X178875000Y-63650000D02*
X177850000Y-63650000D01*
X177850000Y-63650000D02*
X177800000Y-63700000D01*
X148375000Y-71602500D02*
X149802500Y-71602500D01*
X150200000Y-66700000D02*
X151400000Y-65500000D01*
X123990500Y-76880750D02*
X122140500Y-76880750D01*
D39*
X156550000Y-65700000D02*
X155100000Y-65700000D01*
D40*
X121440500Y-81180750D02*
X121440500Y-78780750D01*
X127300000Y-76100000D02*
X124771250Y-76100000D01*
D39*
X169925000Y-73125000D02*
X169200000Y-72400000D01*
X201300000Y-66200000D02*
X202400000Y-66200000D01*
X172675000Y-74600000D02*
X172675000Y-75675000D01*
D40*
X157200000Y-73600000D02*
X158225000Y-72575000D01*
X123990500Y-83080750D02*
X122140500Y-83080750D01*
X150300000Y-70700000D02*
X149335000Y-70700000D01*
X129900000Y-77100000D02*
X129000000Y-78000000D01*
D39*
X169925000Y-73500000D02*
X169925000Y-73125000D01*
X148125000Y-73007928D02*
X147332928Y-73800000D01*
X172675000Y-75675000D02*
X172800000Y-75800000D01*
D40*
X149335000Y-70700000D02*
X149335000Y-70617500D01*
D39*
X206700000Y-66200000D02*
X206900000Y-66000000D01*
X198975000Y-76260000D02*
X197240000Y-76260000D01*
D40*
X145225000Y-66925000D02*
X144600000Y-66300000D01*
X158225000Y-72575000D02*
X158800000Y-72575000D01*
X149802500Y-71602500D02*
X150100000Y-71900000D01*
D39*
X197240000Y-76260000D02*
X197200000Y-76300000D01*
D40*
X163750000Y-76050000D02*
X164425000Y-75375000D01*
D39*
X156550000Y-68200000D02*
X155100000Y-68200000D01*
D40*
X121440500Y-83780750D02*
X121440500Y-81180750D01*
D39*
X147332928Y-73800000D02*
X147100000Y-73800000D01*
D40*
X129000000Y-78000000D02*
X129000000Y-78525000D01*
D39*
X202400000Y-66200000D02*
X202700000Y-65900000D01*
D40*
X121440500Y-78780750D02*
X121440500Y-76180750D01*
X122140500Y-83080750D02*
X121440500Y-83780750D01*
D39*
%TO.N,V_LOAD*%
X188600000Y-62000000D02*
X189900000Y-63300000D01*
X176600000Y-63200000D02*
X177800000Y-62000000D01*
X186500000Y-76300000D02*
X184900000Y-76300000D01*
X175700000Y-62300000D02*
X176600000Y-63200000D01*
X177800000Y-62000000D02*
X188600000Y-62000000D01*
D40*
X165975000Y-74400000D02*
X165975000Y-73625000D01*
D39*
X180950000Y-77600000D02*
X179550000Y-79000000D01*
D40*
X166600000Y-71500000D02*
X166000000Y-70900000D01*
D39*
X183600000Y-77600000D02*
X180950000Y-77600000D01*
X179275000Y-68775000D02*
X176600000Y-66100000D01*
D40*
X166600000Y-73000000D02*
X166600000Y-71500000D01*
X165975000Y-73625000D02*
X166600000Y-73000000D01*
D39*
X184900000Y-76300000D02*
X183600000Y-77600000D01*
X180400000Y-68775000D02*
X179275000Y-68775000D01*
X176600000Y-66100000D02*
X176600000Y-63200000D01*
D40*
X179550000Y-73500000D02*
X179550000Y-79000000D01*
D39*
X175475000Y-62300000D02*
X175700000Y-62300000D01*
D40*
%TO.N,+5V_OUT*%
X200250000Y-70450000D02*
X196650000Y-66850000D01*
X201300000Y-72850000D02*
X200250000Y-71800000D01*
X196650000Y-66850000D02*
X195700000Y-66850000D01*
X205587500Y-76300000D02*
X205587500Y-73137500D01*
X207052750Y-77765250D02*
X205587500Y-76300000D01*
X201300000Y-72850000D02*
X205300000Y-72850000D01*
X211335000Y-77765250D02*
X207052750Y-77765250D01*
D39*
X198450000Y-73600000D02*
X200250000Y-71800000D01*
D40*
X205587500Y-73137500D02*
X205300000Y-72850000D01*
D39*
X197000000Y-73600000D02*
X198450000Y-73600000D01*
D40*
X200250000Y-71800000D02*
X200250000Y-70450000D01*
%TO.N,+5V_CHARGE*%
X124800000Y-86000000D02*
X129000000Y-81800000D01*
D39*
X169925000Y-76200000D02*
X170625000Y-75500000D01*
X173500000Y-71100000D02*
X172900000Y-70500000D01*
X136600000Y-63900000D02*
X133900000Y-66600000D01*
X163665000Y-66335000D02*
X168600000Y-61400000D01*
D40*
X129000000Y-80075000D02*
X128937394Y-80075000D01*
X126400000Y-94300000D02*
X124800000Y-92700000D01*
D39*
X161200000Y-63900000D02*
X136600000Y-63900000D01*
X174900000Y-72800000D02*
X173900000Y-72800000D01*
D40*
X140900000Y-91400000D02*
X137500000Y-91400000D01*
D39*
X167700000Y-69100000D02*
X167200000Y-68600000D01*
D40*
X164165000Y-71035000D02*
X164165000Y-71361898D01*
D39*
X169100000Y-70500000D02*
X167700000Y-69100000D01*
D40*
X124800000Y-92700000D02*
X124800000Y-86000000D01*
D39*
X174200000Y-61400000D02*
X174600000Y-61800000D01*
X174600000Y-61800000D02*
X174600000Y-64380000D01*
X163665000Y-66595640D02*
X163665000Y-66365000D01*
X133900000Y-75175000D02*
X131537500Y-77537500D01*
X175475000Y-72225000D02*
X174900000Y-72800000D01*
X168600000Y-61400000D02*
X174200000Y-61400000D01*
X131700000Y-77375000D02*
X131537500Y-77537500D01*
X131700000Y-74000000D02*
X131700000Y-77375000D01*
X131537500Y-77537500D02*
X129000000Y-80075000D01*
X163665000Y-67165000D02*
X163665000Y-66595640D01*
D40*
X128937394Y-80075000D02*
X127462394Y-78600000D01*
X137500000Y-91400000D02*
X134600000Y-94300000D01*
X164165000Y-71361898D02*
X160526898Y-75000000D01*
D39*
X133900000Y-66600000D02*
X133900000Y-75175000D01*
X175475000Y-68300000D02*
X175475000Y-72225000D01*
X172900000Y-70500000D02*
X171200000Y-70500000D01*
X166100000Y-69100000D02*
X167700000Y-69100000D01*
D40*
X129000000Y-81800000D02*
X129000000Y-80075000D01*
D39*
X171200000Y-70500000D02*
X169100000Y-70500000D01*
X163665000Y-66595640D02*
X163665000Y-66335000D01*
X167200000Y-68600000D02*
X166100000Y-68600000D01*
X174600000Y-64380000D02*
X175475000Y-65255000D01*
X173900000Y-72800000D02*
X173500000Y-72400000D01*
X170625000Y-71075000D02*
X171200000Y-70500000D01*
X170625000Y-75500000D02*
X170625000Y-71075000D01*
D40*
X134600000Y-94300000D02*
X126400000Y-94300000D01*
X160526898Y-75000000D02*
X157300000Y-75000000D01*
D39*
X163665000Y-66365000D02*
X161200000Y-63900000D01*
D40*
X127462394Y-78600000D02*
X125100000Y-78600000D01*
X157300000Y-75000000D02*
X140900000Y-91400000D01*
D39*
X173500000Y-72400000D02*
X173500000Y-71100000D01*
X175475000Y-65255000D02*
X175475000Y-68300000D01*
%TO.N,/SCL*%
X142245000Y-73545000D02*
X142350000Y-73650000D01*
X138000000Y-73545000D02*
X142245000Y-73545000D01*
X143200000Y-74500000D02*
X142350000Y-73650000D01*
X147534314Y-74500000D02*
X143200000Y-74500000D01*
X148625000Y-73409314D02*
X147534314Y-74500000D01*
X148625000Y-72587500D02*
X148625000Y-73409314D01*
%TO.N,/SDA*%
X149125000Y-72587500D02*
X149125000Y-73475000D01*
X138000000Y-76085000D02*
X141935000Y-76085000D01*
X143350000Y-77500000D02*
X142350000Y-76500000D01*
X141935000Y-76085000D02*
X142350000Y-76500000D01*
X149125000Y-73475000D02*
X145100000Y-77500000D01*
X145100000Y-77500000D02*
X143350000Y-77500000D01*
%TO.N,/INT*%
X142612352Y-70800000D02*
X142375000Y-70800000D01*
X142170000Y-71005000D02*
X142375000Y-70800000D01*
X147625000Y-72587500D02*
X144399852Y-72587500D01*
X138000000Y-71005000D02*
X142170000Y-71005000D01*
X144399852Y-72587500D02*
X142612352Y-70800000D01*
%TO.N,/PG*%
X165165000Y-66792698D02*
X165165000Y-67165000D01*
X169612500Y-68340000D02*
X167372500Y-66100000D01*
X167372500Y-66100000D02*
X165857698Y-66100000D01*
X165857698Y-66100000D02*
X165165000Y-66792698D01*
%TO.N,/STAT2*%
X164665000Y-66727012D02*
X164665000Y-67165000D01*
X166097012Y-65295000D02*
X164665000Y-66727012D01*
X169612500Y-65295000D02*
X166097012Y-65295000D01*
%TO.N,/D-*%
X209365250Y-75265250D02*
X205300000Y-71200000D01*
X211335000Y-75265250D02*
X209365250Y-75265250D01*
X205300000Y-71200000D02*
X205300000Y-67850000D01*
%TO.N,/D+*%
X206075000Y-68005250D02*
X206075000Y-67437352D01*
X206075000Y-67437352D02*
X205737648Y-67100000D01*
X201300000Y-67850000D02*
X201300000Y-71200000D01*
X205737648Y-67100000D02*
X202050000Y-67100000D01*
X202050000Y-67100000D02*
X201300000Y-67850000D01*
X211335000Y-73265250D02*
X206075000Y-68005250D01*
%TO.N,Net-(U3-VPCC)*%
X166537988Y-69600000D02*
X168275000Y-71337012D01*
X168275000Y-71337012D02*
X168275000Y-73500000D01*
X168275000Y-76200000D02*
X168275000Y-73500000D01*
X166100000Y-69600000D02*
X166537988Y-69600000D01*
%TO.N,Net-(U3-PROG1)*%
X159100000Y-69100000D02*
X158200000Y-68200000D01*
X162230000Y-69100000D02*
X159100000Y-69100000D01*
%TO.N,Net-(U3-PROG3)*%
X162230000Y-68600000D02*
X161100000Y-68600000D01*
X161100000Y-68600000D02*
X158200000Y-65700000D01*
%TO.N,Net-(U3-THERM)*%
X168097814Y-68100000D02*
X169797814Y-69800000D01*
X174325000Y-70725000D02*
X174325000Y-71700000D01*
X169797814Y-69800000D02*
X173400000Y-69800000D01*
X173400000Y-69800000D02*
X174325000Y-70725000D01*
X166100000Y-68100000D02*
X168097814Y-68100000D01*
%TO.N,Net-(RT1-Pad2)*%
X172675000Y-71700000D02*
X172675000Y-72950000D01*
X172675000Y-72950000D02*
X174325000Y-74600000D01*
%TO.N,Net-(D4-K)*%
X200665000Y-76300000D02*
X200625000Y-76260000D01*
X204012500Y-76300000D02*
X200665000Y-76300000D01*
%TO.N,V_MCU_LOGIC*%
X137100000Y-74800000D02*
X142300000Y-74800000D01*
X137200000Y-72300000D02*
X136400000Y-73100000D01*
X136400000Y-70065000D02*
X136400000Y-71600000D01*
X141465000Y-68465000D02*
X143800000Y-70800000D01*
X142650000Y-72300000D02*
X137668654Y-72300000D01*
X138000000Y-68465000D02*
X136400000Y-70065000D01*
X142300000Y-74800000D02*
X144000000Y-76500000D01*
X136400000Y-71600000D02*
X137100000Y-72300000D01*
X137100000Y-72300000D02*
X137668654Y-72300000D01*
X136400000Y-74100000D02*
X137100000Y-74800000D01*
X137668654Y-72300000D02*
X137200000Y-72300000D01*
X144000000Y-73650000D02*
X142650000Y-72300000D01*
X143800000Y-70800000D02*
X144025000Y-70800000D01*
X136400000Y-73100000D02*
X136400000Y-74100000D01*
X138000000Y-68465000D02*
X141465000Y-68465000D01*
%TO.N,/LBO*%
X168486326Y-62340000D02*
X169712500Y-62340000D01*
X164165000Y-67165000D02*
X164165000Y-66661326D01*
X164165000Y-66661326D02*
X168486326Y-62340000D01*
%TO.N,Net-(D2-A)*%
X173785000Y-65295000D02*
X173825000Y-65255000D01*
X171187500Y-65295000D02*
X173785000Y-65295000D01*
%TO.N,Net-(D1-A)*%
X171187500Y-68340000D02*
X173785000Y-68340000D01*
X173785000Y-68340000D02*
X173825000Y-68300000D01*
%TO.N,/EN*%
X181461000Y-65700000D02*
X178500000Y-65700000D01*
X177125000Y-63420405D02*
X178045405Y-62500000D01*
X188500000Y-64700000D02*
X191700000Y-64700000D01*
X186300000Y-62500000D02*
X188500000Y-64700000D01*
X178045405Y-62500000D02*
X186300000Y-62500000D01*
X183111000Y-67350000D02*
X181461000Y-65700000D01*
X191700000Y-64700000D02*
X192440000Y-63960000D01*
X177125000Y-64325000D02*
X177125000Y-63420405D01*
X178500000Y-65700000D02*
X177125000Y-64325000D01*
X192440000Y-63960000D02*
X192440000Y-63300000D01*
X183561000Y-67350000D02*
X183111000Y-67350000D01*
%TO.N,Net-(D3-A)*%
X171287500Y-62340000D02*
X173785000Y-62340000D01*
X173785000Y-62340000D02*
X173825000Y-62300000D01*
%TD*%
%TA.AperFunction,Conductor*%
%TO.N,GND*%
G36*
X180961918Y-66600561D02*
G01*
X180988486Y-66603405D01*
X181009075Y-66607865D01*
X181034430Y-66616267D01*
X181044250Y-66620113D01*
X182100000Y-67100000D01*
X182699708Y-67372594D01*
X182728744Y-67392715D01*
X182852436Y-67516407D01*
X182860537Y-67527647D01*
X182861516Y-67526909D01*
X182867044Y-67534230D01*
X182901724Y-67565845D01*
X182905032Y-67569003D01*
X182918203Y-67582174D01*
X182918295Y-67582237D01*
X182929042Y-67590750D01*
X182950064Y-67609914D01*
X182950065Y-67609914D01*
X182950067Y-67609916D01*
X182959230Y-67613466D01*
X182979416Y-67624105D01*
X182987519Y-67629656D01*
X183015215Y-67636170D01*
X183028293Y-67640220D01*
X183054827Y-67650500D01*
X183064652Y-67650500D01*
X183087316Y-67653129D01*
X183096881Y-67655379D01*
X183121958Y-67651880D01*
X183125054Y-67651449D01*
X183138731Y-67650500D01*
X183207732Y-67650500D01*
X183247723Y-67662630D01*
X183248757Y-67660134D01*
X183257764Y-67663863D01*
X183257769Y-67663867D01*
X183302231Y-67672711D01*
X183316241Y-67675498D01*
X183316246Y-67675498D01*
X183316252Y-67675500D01*
X183695500Y-67675500D01*
X183753691Y-67694407D01*
X183789655Y-67743907D01*
X183794500Y-67774500D01*
X183794500Y-67871000D01*
X183775593Y-67929191D01*
X183726093Y-67965155D01*
X183695500Y-67970000D01*
X183367548Y-67970000D01*
X183312545Y-67953314D01*
X183301335Y-67945823D01*
X183301328Y-67945819D01*
X183246820Y-67920037D01*
X183246817Y-67920036D01*
X183246814Y-67920035D01*
X183246812Y-67920034D01*
X183191810Y-67903349D01*
X183191808Y-67903348D01*
X183191806Y-67903348D01*
X183132159Y-67894500D01*
X183132155Y-67894500D01*
X180009752Y-67894500D01*
X180002428Y-67894859D01*
X179989604Y-67895489D01*
X179989603Y-67895489D01*
X179970323Y-67897388D01*
X179970270Y-67897394D01*
X179960672Y-67898818D01*
X179959936Y-67898928D01*
X179945408Y-67900000D01*
X179092595Y-67900000D01*
X179073281Y-67898098D01*
X179055192Y-67894500D01*
X179025618Y-67888617D01*
X178989932Y-67873835D01*
X178949531Y-67846840D01*
X178934528Y-67834528D01*
X178865471Y-67765471D01*
X178853159Y-67750468D01*
X178826164Y-67710067D01*
X178811382Y-67674379D01*
X178801902Y-67626718D01*
X178800000Y-67607405D01*
X178800000Y-66892594D01*
X178801902Y-66873281D01*
X178811382Y-66825620D01*
X178826162Y-66789935D01*
X178853164Y-66749524D01*
X178865466Y-66734533D01*
X178934533Y-66665466D01*
X178949524Y-66653164D01*
X178989935Y-66626162D01*
X179025618Y-66611382D01*
X179060054Y-66604533D01*
X179073282Y-66601902D01*
X179092595Y-66600000D01*
X180951398Y-66600000D01*
X180961918Y-66600561D01*
G37*
%TD.AperFunction*%
%TD*%
%TA.AperFunction,Conductor*%
%TO.N,+5V_CHARGE*%
G36*
X125317183Y-78218907D02*
G01*
X125328996Y-78228996D01*
X125371004Y-78271004D01*
X125398781Y-78325521D01*
X125400000Y-78341008D01*
X125400000Y-78858992D01*
X125381093Y-78917183D01*
X125371004Y-78928996D01*
X125328996Y-78971004D01*
X125274479Y-78998781D01*
X125258992Y-79000000D01*
X125100000Y-79000000D01*
X124985739Y-79000000D01*
X124930737Y-78983315D01*
X124868733Y-78941884D01*
X124868731Y-78941883D01*
X124868728Y-78941882D01*
X124868727Y-78941882D01*
X124810258Y-78930251D01*
X124810248Y-78930250D01*
X123420752Y-78930250D01*
X123420744Y-78930250D01*
X123418304Y-78930736D01*
X123417175Y-78930602D01*
X123415908Y-78930727D01*
X123415880Y-78930448D01*
X123357544Y-78923538D01*
X123312618Y-78882001D01*
X123300000Y-78833636D01*
X123300000Y-78441008D01*
X123318907Y-78382817D01*
X123328996Y-78371004D01*
X123371004Y-78328996D01*
X123425521Y-78301219D01*
X123441008Y-78300000D01*
X124700001Y-78300000D01*
X124800000Y-78300000D01*
X124888106Y-78252683D01*
X124893790Y-78250482D01*
X124893829Y-78250584D01*
X124909989Y-78244324D01*
X125074316Y-78202991D01*
X125098465Y-78200000D01*
X125258992Y-78200000D01*
X125317183Y-78218907D01*
G37*
%TD.AperFunction*%
%TD*%
%TA.AperFunction,Conductor*%
%TO.N,+BATT*%
G36*
X149218192Y-69470035D02*
G01*
X149232825Y-69476096D01*
X149279351Y-69515833D01*
X149286401Y-69529669D01*
X149290811Y-69540315D01*
X149296446Y-69597520D01*
X149288616Y-69636881D01*
X149273835Y-69672567D01*
X149246840Y-69712968D01*
X149234528Y-69727970D01*
X149000000Y-69962499D01*
X148949998Y-70012501D01*
X148949995Y-70012504D01*
X148900000Y-70062500D01*
X148900000Y-70072206D01*
X148854864Y-70102365D01*
X148803093Y-70179847D01*
X148803091Y-70179853D01*
X148789501Y-70248169D01*
X148789500Y-70248181D01*
X148789500Y-70410907D01*
X148781964Y-70448792D01*
X148774314Y-70467258D01*
X148774312Y-70467267D01*
X148759500Y-70579779D01*
X148759500Y-70655790D01*
X148758653Y-70668712D01*
X148754534Y-70699999D01*
X148754534Y-70700000D01*
X148759500Y-70737720D01*
X148772976Y-70840078D01*
X148761826Y-70900238D01*
X148717444Y-70942356D01*
X148674823Y-70952000D01*
X148059500Y-70952000D01*
X148001309Y-70933093D01*
X147965345Y-70883593D01*
X147960500Y-70853000D01*
X147960500Y-70824092D01*
X147968035Y-70786208D01*
X147975687Y-70767736D01*
X147995466Y-70617500D01*
X147975687Y-70467264D01*
X147968036Y-70448792D01*
X147960500Y-70410907D01*
X147960500Y-70248181D01*
X147960498Y-70248169D01*
X147950379Y-70197302D01*
X147946908Y-70179850D01*
X147900000Y-70109646D01*
X147900000Y-70100000D01*
X147762499Y-69962499D01*
X147565471Y-69765470D01*
X147553159Y-69750468D01*
X147538126Y-69727970D01*
X147526163Y-69710066D01*
X147511382Y-69674379D01*
X147501902Y-69626718D01*
X147500000Y-69607405D01*
X147500000Y-69594283D01*
X147503373Y-69568661D01*
X147509043Y-69547499D01*
X147534664Y-69503119D01*
X147540619Y-69497164D01*
X147584998Y-69471543D01*
X147606161Y-69465872D01*
X147631783Y-69462500D01*
X149180309Y-69462500D01*
X149218192Y-69470035D01*
G37*
%TD.AperFunction*%
%TD*%
%TA.AperFunction,Conductor*%
%TO.N,Net-(U2-FB)*%
G36*
X183509561Y-63101902D02*
G01*
X183557222Y-63111382D01*
X183592908Y-63126163D01*
X183625050Y-63147640D01*
X183652359Y-63174949D01*
X183673328Y-63206330D01*
X183673835Y-63207089D01*
X183688616Y-63242775D01*
X183698097Y-63290436D01*
X183700000Y-63309751D01*
X183700000Y-64200000D01*
X183700689Y-64208275D01*
X183700690Y-64208279D01*
X183899221Y-66590662D01*
X183899371Y-66592716D01*
X183899698Y-66597955D01*
X183899868Y-66602047D01*
X183899978Y-66607295D01*
X183900000Y-66609370D01*
X183900000Y-66890248D01*
X183898098Y-66909562D01*
X183891086Y-66944814D01*
X183861189Y-66998198D01*
X183805624Y-67023814D01*
X183793988Y-67024500D01*
X183316249Y-67024500D01*
X183315812Y-67024543D01*
X183315616Y-67024500D01*
X183311388Y-67024500D01*
X183311388Y-67023572D01*
X183256049Y-67011426D01*
X183215410Y-66965687D01*
X183209017Y-66945332D01*
X183201902Y-66909561D01*
X183200000Y-66890248D01*
X183200000Y-66608337D01*
X183200000Y-66608319D01*
X183200000Y-66600000D01*
X183000000Y-64200000D01*
X182800000Y-64100000D01*
X182752786Y-64100000D01*
X182752785Y-64100000D01*
X180309752Y-64100000D01*
X180290438Y-64098098D01*
X180274470Y-64094921D01*
X180242775Y-64088617D01*
X180207089Y-64073835D01*
X180206330Y-64073328D01*
X180174949Y-64052359D01*
X180147640Y-64025050D01*
X180126163Y-63992908D01*
X180111382Y-63957222D01*
X180101902Y-63909561D01*
X180100000Y-63890248D01*
X180100000Y-63309751D01*
X180101902Y-63290438D01*
X180111382Y-63242777D01*
X180126162Y-63207092D01*
X180147642Y-63174946D01*
X180174946Y-63147642D01*
X180207092Y-63126162D01*
X180242775Y-63111382D01*
X180268021Y-63106360D01*
X180290439Y-63101902D01*
X180309752Y-63100000D01*
X183490248Y-63100000D01*
X183509561Y-63101902D01*
G37*
%TD.AperFunction*%
%TD*%
%TA.AperFunction,Conductor*%
%TO.N,GND*%
G36*
X124984868Y-81033522D02*
G01*
X125001962Y-81038235D01*
X125300000Y-81150000D01*
X125577386Y-81254020D01*
X125623995Y-81290327D01*
X125682370Y-81374561D01*
X125700000Y-81430951D01*
X125700000Y-83965199D01*
X125681093Y-84023390D01*
X125678224Y-84027146D01*
X125624157Y-84094546D01*
X125572997Y-84128107D01*
X125568409Y-84129242D01*
X124902904Y-84277132D01*
X124892231Y-84278898D01*
X124705384Y-84299409D01*
X124694581Y-84300000D01*
X123319693Y-84300000D01*
X123281807Y-84292464D01*
X123147483Y-84236825D01*
X123115365Y-84215365D01*
X123084634Y-84184634D01*
X123063174Y-84152515D01*
X123007536Y-84018192D01*
X123000000Y-83980307D01*
X123000000Y-82107228D01*
X123001049Y-82092852D01*
X123027687Y-81911353D01*
X123030808Y-81897305D01*
X123261843Y-81127186D01*
X123296674Y-81076884D01*
X123297395Y-81076340D01*
X123335959Y-81047648D01*
X123393926Y-81028082D01*
X123414362Y-81029979D01*
X123420752Y-81031250D01*
X123420757Y-81031250D01*
X124810247Y-81031250D01*
X124810248Y-81031250D01*
X124810249Y-81031249D01*
X124810255Y-81031249D01*
X124829879Y-81027345D01*
X124868731Y-81019617D01*
X124868732Y-81019615D01*
X124869084Y-81019546D01*
X124906061Y-81019232D01*
X124984868Y-81033522D01*
G37*
%TD.AperFunction*%
%TD*%
%TA.AperFunction,Conductor*%
%TO.N,V_LOAD*%
G36*
X166460699Y-69949406D02*
G01*
X166472512Y-69959495D01*
X166636004Y-70122987D01*
X166663781Y-70177504D01*
X166665000Y-70192991D01*
X166665000Y-70307405D01*
X166663097Y-70326720D01*
X166653616Y-70374381D01*
X166638835Y-70410067D01*
X166611840Y-70450468D01*
X166599528Y-70465471D01*
X165530471Y-71534528D01*
X165515468Y-71546840D01*
X165475067Y-71573835D01*
X165439381Y-71588616D01*
X165391720Y-71598097D01*
X165372405Y-71600000D01*
X165174752Y-71600000D01*
X165155438Y-71598098D01*
X165139470Y-71594921D01*
X165107775Y-71588617D01*
X165072088Y-71573834D01*
X165039952Y-71552361D01*
X165012638Y-71525047D01*
X165005520Y-71514394D01*
X164988912Y-71455506D01*
X164990737Y-71440091D01*
X164995500Y-71416147D01*
X164995499Y-70749499D01*
X165014406Y-70691309D01*
X165063906Y-70655345D01*
X165094499Y-70650500D01*
X165534747Y-70650500D01*
X165534748Y-70650500D01*
X165593231Y-70638867D01*
X165651399Y-70600000D01*
X165665000Y-70600000D01*
X165665000Y-70586398D01*
X165703867Y-70528231D01*
X165715500Y-70469748D01*
X165715500Y-70029499D01*
X165734407Y-69971308D01*
X165783907Y-69935344D01*
X165814494Y-69930499D01*
X166402508Y-69930499D01*
X166460699Y-69949406D01*
G37*
%TD.AperFunction*%
%TD*%
%TA.AperFunction,Conductor*%
%TO.N,Net-(U2-SW)*%
G36*
X184327528Y-67418907D02*
G01*
X184336540Y-67426304D01*
X184337035Y-67426762D01*
X184343422Y-67432216D01*
X184348857Y-67436858D01*
X184418815Y-67476036D01*
X184477006Y-67494943D01*
X184489706Y-67496954D01*
X184540504Y-67505000D01*
X184540508Y-67505000D01*
X184573408Y-67505000D01*
X184631599Y-67523907D01*
X184667563Y-67573407D01*
X184667563Y-67634593D01*
X184631599Y-67684093D01*
X184600280Y-67699283D01*
X184531730Y-67718615D01*
X184531724Y-67718617D01*
X184477208Y-67746394D01*
X184425199Y-67784181D01*
X184383666Y-67825714D01*
X184372739Y-67837534D01*
X184362645Y-67849353D01*
X184362639Y-67849362D01*
X184323464Y-67919314D01*
X184304556Y-67977507D01*
X184294500Y-68041004D01*
X184294500Y-68309595D01*
X184298448Y-68349684D01*
X184305985Y-68387575D01*
X184317674Y-68426110D01*
X184317681Y-68426128D01*
X184344444Y-68490742D01*
X184351200Y-68505397D01*
X184358252Y-68519240D01*
X184378748Y-68545240D01*
X184399924Y-68602644D01*
X184400000Y-68606528D01*
X184400000Y-75590248D01*
X184398097Y-75609563D01*
X184388616Y-75657224D01*
X184373835Y-75692910D01*
X184352362Y-75725047D01*
X184325047Y-75752362D01*
X184292910Y-75773835D01*
X184257224Y-75788616D01*
X184209563Y-75798097D01*
X184190248Y-75800000D01*
X181709752Y-75800000D01*
X181690438Y-75798098D01*
X181674470Y-75794921D01*
X181642775Y-75788617D01*
X181607089Y-75773835D01*
X181606330Y-75773328D01*
X181574949Y-75752359D01*
X181547640Y-75725050D01*
X181526163Y-75692908D01*
X181511382Y-75657222D01*
X181501902Y-75609561D01*
X181500000Y-75590248D01*
X181500000Y-71290059D01*
X181501809Y-71271222D01*
X181510831Y-71224673D01*
X181524906Y-71189726D01*
X181550670Y-71149911D01*
X181562418Y-71135084D01*
X182750000Y-69900000D01*
X183944167Y-68658067D01*
X183944168Y-68658064D01*
X184000000Y-68600000D01*
X184000000Y-68371743D01*
X184001072Y-68357215D01*
X184002607Y-68346869D01*
X184004510Y-68327554D01*
X184005500Y-68307405D01*
X184005500Y-68274500D01*
X184002970Y-68242356D01*
X184001218Y-68231299D01*
X184000000Y-68215814D01*
X184000000Y-67609751D01*
X184001902Y-67590438D01*
X184011382Y-67542777D01*
X184026162Y-67507092D01*
X184047642Y-67474946D01*
X184074946Y-67447642D01*
X184107092Y-67426162D01*
X184142775Y-67411382D01*
X184168021Y-67406360D01*
X184190439Y-67401902D01*
X184209752Y-67400000D01*
X184269337Y-67400000D01*
X184327528Y-67418907D01*
G37*
%TD.AperFunction*%
%TD*%
%TA.AperFunction,Conductor*%
%TO.N,+BATT*%
G36*
X161824916Y-69425738D02*
G01*
X161837684Y-69428278D01*
X161848847Y-69430499D01*
X161848848Y-69430499D01*
X161848853Y-69430500D01*
X162515500Y-69430499D01*
X162573691Y-69449406D01*
X162609655Y-69498906D01*
X162614500Y-69529499D01*
X162614500Y-70469746D01*
X162614501Y-70469758D01*
X162626132Y-70528227D01*
X162626134Y-70528233D01*
X162665000Y-70586399D01*
X162665000Y-70600000D01*
X162678601Y-70600000D01*
X162736769Y-70638867D01*
X162781231Y-70647711D01*
X162795241Y-70650498D01*
X162795246Y-70650498D01*
X162795252Y-70650500D01*
X163235500Y-70650500D01*
X163293691Y-70669407D01*
X163329655Y-70718907D01*
X163334500Y-70749500D01*
X163334500Y-71337509D01*
X163315593Y-71395700D01*
X163305504Y-71407513D01*
X163142013Y-71571004D01*
X163087496Y-71598781D01*
X163072009Y-71600000D01*
X162763818Y-71600000D01*
X162743351Y-71597861D01*
X162693031Y-71587228D01*
X162655594Y-71570667D01*
X162613877Y-71540585D01*
X162598527Y-71526880D01*
X161723171Y-70563988D01*
X161712199Y-70549422D01*
X161688163Y-70510512D01*
X161675068Y-70476640D01*
X161666679Y-70431676D01*
X161665000Y-70413519D01*
X161665000Y-69609751D01*
X161666902Y-69590438D01*
X161676382Y-69542777D01*
X161691163Y-69507090D01*
X161712642Y-69474946D01*
X161739946Y-69447642D01*
X161750607Y-69440518D01*
X161809491Y-69423912D01*
X161824916Y-69425738D01*
G37*
%TD.AperFunction*%
%TD*%
%TA.AperFunction,Conductor*%
%TO.N,GND*%
G36*
X196018192Y-67707536D02*
G01*
X196152515Y-67763174D01*
X196184634Y-67784634D01*
X196315365Y-67915365D01*
X196336825Y-67947483D01*
X196392464Y-68081806D01*
X196400000Y-68119692D01*
X196400000Y-68580307D01*
X196392464Y-68618193D01*
X196336825Y-68752516D01*
X196315365Y-68784634D01*
X196184634Y-68915365D01*
X196152516Y-68936825D01*
X196018193Y-68992464D01*
X195980307Y-69000000D01*
X188219693Y-69000000D01*
X188181807Y-68992464D01*
X188047483Y-68936825D01*
X188015366Y-68915365D01*
X187670709Y-68570709D01*
X187600000Y-68500000D01*
X187500000Y-68500000D01*
X184690403Y-68500000D01*
X184652517Y-68492464D01*
X184587885Y-68465692D01*
X184541359Y-68425955D01*
X184534307Y-68412113D01*
X184507536Y-68347481D01*
X184500000Y-68309596D01*
X184500000Y-68041008D01*
X184518907Y-67982817D01*
X184528996Y-67971004D01*
X184570504Y-67929496D01*
X184625021Y-67901719D01*
X184640508Y-67900500D01*
X185755747Y-67900500D01*
X185755748Y-67900500D01*
X185758262Y-67900000D01*
X185800000Y-67900000D01*
X185810362Y-67889636D01*
X185814231Y-67888867D01*
X185880552Y-67844552D01*
X185913438Y-67795334D01*
X185957868Y-67758873D01*
X186081808Y-67707536D01*
X186119693Y-67700000D01*
X195980307Y-67700000D01*
X196018192Y-67707536D01*
G37*
%TD.AperFunction*%
%TD*%
%TA.AperFunction,Conductor*%
%TO.N,GND*%
G36*
X163174561Y-66701902D02*
G01*
X163222222Y-66711382D01*
X163257911Y-66726165D01*
X163290047Y-66747638D01*
X163317325Y-66774898D01*
X163317780Y-66775578D01*
X163334500Y-66830633D01*
X163334500Y-67546143D01*
X163334501Y-67546150D01*
X163349904Y-67623591D01*
X163349904Y-67623592D01*
X163349905Y-67623593D01*
X163408585Y-67711415D01*
X163408588Y-67711417D01*
X163408589Y-67711418D01*
X163417239Y-67717197D01*
X163426789Y-67723578D01*
X163465000Y-67800000D01*
X163755248Y-67800000D01*
X163774561Y-67801902D01*
X163822222Y-67811382D01*
X163857908Y-67826163D01*
X163890050Y-67847640D01*
X163917359Y-67874949D01*
X163927733Y-67890474D01*
X163938835Y-67907089D01*
X163953616Y-67942775D01*
X163963097Y-67990436D01*
X163965000Y-68009751D01*
X163965000Y-68790248D01*
X163963097Y-68809563D01*
X163953616Y-68857224D01*
X163938835Y-68892910D01*
X163917362Y-68925047D01*
X163890047Y-68952362D01*
X163857910Y-68973835D01*
X163822224Y-68988616D01*
X163774563Y-68998097D01*
X163755248Y-69000000D01*
X163074752Y-69000000D01*
X163055438Y-68998098D01*
X163039470Y-68994921D01*
X163007775Y-68988617D01*
X162972089Y-68973835D01*
X162971330Y-68973328D01*
X162939949Y-68952359D01*
X162912640Y-68925050D01*
X162891163Y-68892908D01*
X162876382Y-68857222D01*
X162866902Y-68809561D01*
X162865000Y-68790248D01*
X162865000Y-68660556D01*
X162865000Y-68660555D01*
X162865000Y-68600000D01*
X162852375Y-68581063D01*
X162850499Y-68568388D01*
X162850499Y-68508856D01*
X162850498Y-68508849D01*
X162835095Y-68431407D01*
X162835094Y-68431405D01*
X162776418Y-68343588D01*
X162776413Y-68343583D01*
X162688592Y-68284904D01*
X162688593Y-68284904D01*
X162611147Y-68269500D01*
X161848856Y-68269500D01*
X161848844Y-68269502D01*
X161824916Y-68274261D01*
X161764155Y-68267068D01*
X161750606Y-68259480D01*
X161746284Y-68256592D01*
X161739952Y-68252361D01*
X161712640Y-68225050D01*
X161691163Y-68192908D01*
X161676382Y-68157222D01*
X161666902Y-68109561D01*
X161665000Y-68090248D01*
X161665000Y-67997817D01*
X161667100Y-67977534D01*
X161677545Y-67927635D01*
X161693813Y-67890476D01*
X161723399Y-67848949D01*
X161736868Y-67833660D01*
X162900743Y-66759313D01*
X162915383Y-66748133D01*
X162954545Y-66723631D01*
X162988712Y-66710272D01*
X163014866Y-66705341D01*
X163034107Y-66701714D01*
X163052448Y-66700000D01*
X163155248Y-66700000D01*
X163174561Y-66701902D01*
G37*
%TD.AperFunction*%
%TD*%
%TA.AperFunction,Conductor*%
%TO.N,+5V_OUT*%
G36*
X185417183Y-63118907D02*
G01*
X185428996Y-63128996D01*
X185471004Y-63171004D01*
X185498781Y-63225521D01*
X185500000Y-63241008D01*
X185500000Y-65799999D01*
X185499999Y-65799999D01*
X185500000Y-65800001D01*
X185500000Y-65900000D01*
X185800000Y-66200000D01*
X195980307Y-66200000D01*
X196018192Y-66207536D01*
X196152515Y-66263174D01*
X196184634Y-66284634D01*
X196315365Y-66415365D01*
X196336825Y-66447483D01*
X196392464Y-66581806D01*
X196400000Y-66619692D01*
X196400000Y-67080307D01*
X196392464Y-67118193D01*
X196336825Y-67252516D01*
X196315365Y-67284634D01*
X196184634Y-67415365D01*
X196152515Y-67436825D01*
X196029853Y-67487633D01*
X195982266Y-67494693D01*
X195980307Y-67494500D01*
X188306415Y-67494500D01*
X188268529Y-67486964D01*
X188147483Y-67436825D01*
X188115366Y-67415365D01*
X188070710Y-67370710D01*
X188000000Y-67300000D01*
X187900000Y-67300000D01*
X185765689Y-67300000D01*
X185755988Y-67299524D01*
X185755751Y-67299500D01*
X185755748Y-67299500D01*
X184540508Y-67299500D01*
X184482317Y-67280593D01*
X184470504Y-67270504D01*
X184428996Y-67228996D01*
X184401219Y-67174479D01*
X184400000Y-67158992D01*
X184400000Y-63241008D01*
X184418907Y-63182817D01*
X184428996Y-63171004D01*
X184471004Y-63128996D01*
X184525521Y-63101219D01*
X184541008Y-63100000D01*
X185358992Y-63100000D01*
X185417183Y-63118907D01*
G37*
%TD.AperFunction*%
%TD*%
%TA.AperFunction,Conductor*%
%TO.N,+5V_CHARGE*%
G36*
X164749190Y-70669407D02*
G01*
X164785154Y-70718907D01*
X164789999Y-70749500D01*
X164789999Y-71387074D01*
X164788779Y-71402567D01*
X164786664Y-71415914D01*
X164784837Y-71431345D01*
X164791127Y-71511288D01*
X164807735Y-71570177D01*
X164807737Y-71570181D01*
X164830701Y-71619994D01*
X164837893Y-71680755D01*
X164823113Y-71716438D01*
X164817364Y-71725043D01*
X164790047Y-71752362D01*
X164757910Y-71773835D01*
X164722224Y-71788616D01*
X164674563Y-71798097D01*
X164655248Y-71800000D01*
X163674752Y-71800000D01*
X163655438Y-71798098D01*
X163639470Y-71794921D01*
X163607775Y-71788617D01*
X163572089Y-71773835D01*
X163571330Y-71773328D01*
X163539949Y-71752359D01*
X163512640Y-71725050D01*
X163491163Y-71692908D01*
X163476382Y-71657222D01*
X163466902Y-71609561D01*
X163465000Y-71590248D01*
X163465000Y-71567239D01*
X163477623Y-71518865D01*
X163511036Y-71459202D01*
X163529943Y-71401011D01*
X163540000Y-71337509D01*
X163540000Y-70749500D01*
X163540000Y-70749499D01*
X163558907Y-70691309D01*
X163608407Y-70655345D01*
X163639000Y-70650500D01*
X164690999Y-70650500D01*
X164749190Y-70669407D01*
G37*
%TD.AperFunction*%
%TD*%
%TA.AperFunction,Conductor*%
%TO.N,V_LOAD*%
G36*
X183187157Y-68116685D02*
G01*
X183191448Y-68119552D01*
X183257769Y-68163867D01*
X183302231Y-68172711D01*
X183316241Y-68175498D01*
X183316246Y-68175498D01*
X183316252Y-68175500D01*
X183316253Y-68175500D01*
X183701000Y-68175500D01*
X183759191Y-68194407D01*
X183795155Y-68243907D01*
X183800000Y-68274500D01*
X183800000Y-68307405D01*
X183798097Y-68326720D01*
X183788616Y-68374381D01*
X183773835Y-68410067D01*
X183746840Y-68450468D01*
X183734528Y-68465470D01*
X183301581Y-68898418D01*
X183301493Y-68898506D01*
X183300000Y-68900000D01*
X183298597Y-68901466D01*
X183298500Y-68901567D01*
X181155469Y-71142009D01*
X181155467Y-71142011D01*
X181100000Y-71200000D01*
X181100000Y-71280251D01*
X181100000Y-75590248D01*
X181098097Y-75609563D01*
X181088616Y-75657224D01*
X181073835Y-75692910D01*
X181052362Y-75725047D01*
X181025047Y-75752362D01*
X180992910Y-75773835D01*
X180957224Y-75788616D01*
X180909563Y-75798097D01*
X180890248Y-75800000D01*
X179109752Y-75800000D01*
X179090438Y-75798098D01*
X179074470Y-75794921D01*
X179042775Y-75788617D01*
X179007089Y-75773835D01*
X179006330Y-75773328D01*
X178974949Y-75752359D01*
X178947640Y-75725050D01*
X178926163Y-75692908D01*
X178911382Y-75657222D01*
X178901902Y-75609561D01*
X178900000Y-75590248D01*
X178900000Y-71252959D01*
X178900664Y-71241513D01*
X178901693Y-71232671D01*
X178904017Y-71212711D01*
X178909279Y-71190423D01*
X178919160Y-71163165D01*
X178923685Y-71152630D01*
X179350000Y-70300000D01*
X179800000Y-69400000D01*
X179800000Y-68309751D01*
X179801902Y-68290438D01*
X179805072Y-68274500D01*
X179811382Y-68242775D01*
X179826162Y-68207092D01*
X179847642Y-68174946D01*
X179874946Y-68147642D01*
X179907092Y-68126162D01*
X179942775Y-68111382D01*
X179968021Y-68106360D01*
X179990439Y-68101902D01*
X180009752Y-68100000D01*
X183132155Y-68100000D01*
X183187157Y-68116685D01*
G37*
%TD.AperFunction*%
%TD*%
M02*
