%TF.GenerationSoftware,KiCad,Pcbnew,7.0.10*%
%TF.CreationDate,2025-04-27T19:33:47+02:00*%
%TF.ProjectId,projekt,70726f6a-656b-4742-9e6b-696361645f70,rev?*%
%TF.SameCoordinates,Original*%
%TF.FileFunction,Legend,Bot*%
%TF.FilePolarity,Positive*%
%FSLAX46Y46*%
G04 Gerber Fmt 4.6, Leading zero omitted, Abs format (unit mm)*
G04 Created by KiCad (PCBNEW 7.0.10) date 2025-04-27 19:33:47*
%MOMM*%
%LPD*%
G01*
G04 APERTURE LIST*
%ADD10C,0.150000*%
G04 APERTURE END LIST*
D10*
X192600000Y-71200000D02*
X198200000Y-71200000D01*
X198200000Y-74800000D01*
X192600000Y-74800000D01*
X192600000Y-71200000D01*
X197672744Y-71469819D02*
X197482268Y-71469819D01*
X197482268Y-71469819D02*
X197387030Y-71517438D01*
X197387030Y-71517438D02*
X197291792Y-71612676D01*
X197291792Y-71612676D02*
X197244173Y-71803152D01*
X197244173Y-71803152D02*
X197244173Y-72136485D01*
X197244173Y-72136485D02*
X197291792Y-72326961D01*
X197291792Y-72326961D02*
X197387030Y-72422200D01*
X197387030Y-72422200D02*
X197482268Y-72469819D01*
X197482268Y-72469819D02*
X197672744Y-72469819D01*
X197672744Y-72469819D02*
X197767982Y-72422200D01*
X197767982Y-72422200D02*
X197863220Y-72326961D01*
X197863220Y-72326961D02*
X197910839Y-72136485D01*
X197910839Y-72136485D02*
X197910839Y-71803152D01*
X197910839Y-71803152D02*
X197863220Y-71612676D01*
X197863220Y-71612676D02*
X197767982Y-71517438D01*
X197767982Y-71517438D02*
X197672744Y-71469819D01*
X196815601Y-71469819D02*
X196815601Y-72279342D01*
X196815601Y-72279342D02*
X196767982Y-72374580D01*
X196767982Y-72374580D02*
X196720363Y-72422200D01*
X196720363Y-72422200D02*
X196625125Y-72469819D01*
X196625125Y-72469819D02*
X196434649Y-72469819D01*
X196434649Y-72469819D02*
X196339411Y-72422200D01*
X196339411Y-72422200D02*
X196291792Y-72374580D01*
X196291792Y-72374580D02*
X196244173Y-72279342D01*
X196244173Y-72279342D02*
X196244173Y-71469819D01*
X195910839Y-71469819D02*
X195339411Y-71469819D01*
X195625125Y-72469819D02*
X195625125Y-71469819D01*
X194387029Y-71469819D02*
X193815601Y-71469819D01*
X194101315Y-72469819D02*
X194101315Y-71469819D01*
X193482267Y-72469819D02*
X193482267Y-71469819D01*
X193482267Y-71469819D02*
X193101315Y-71469819D01*
X193101315Y-71469819D02*
X193006077Y-71517438D01*
X193006077Y-71517438D02*
X192958458Y-71565057D01*
X192958458Y-71565057D02*
X192910839Y-71660295D01*
X192910839Y-71660295D02*
X192910839Y-71803152D01*
X192910839Y-71803152D02*
X192958458Y-71898390D01*
X192958458Y-71898390D02*
X193006077Y-71946009D01*
X193006077Y-71946009D02*
X193101315Y-71993628D01*
X193101315Y-71993628D02*
X193482267Y-71993628D01*
X184900000Y-73800000D02*
X191300000Y-73800000D01*
X191300000Y-77600000D01*
X184900000Y-77600000D01*
X184900000Y-73800000D01*
X190487030Y-75069819D02*
X190963220Y-75069819D01*
X190963220Y-75069819D02*
X190963220Y-74069819D01*
X189963220Y-74069819D02*
X189772744Y-74069819D01*
X189772744Y-74069819D02*
X189677506Y-74117438D01*
X189677506Y-74117438D02*
X189582268Y-74212676D01*
X189582268Y-74212676D02*
X189534649Y-74403152D01*
X189534649Y-74403152D02*
X189534649Y-74736485D01*
X189534649Y-74736485D02*
X189582268Y-74926961D01*
X189582268Y-74926961D02*
X189677506Y-75022200D01*
X189677506Y-75022200D02*
X189772744Y-75069819D01*
X189772744Y-75069819D02*
X189963220Y-75069819D01*
X189963220Y-75069819D02*
X190058458Y-75022200D01*
X190058458Y-75022200D02*
X190153696Y-74926961D01*
X190153696Y-74926961D02*
X190201315Y-74736485D01*
X190201315Y-74736485D02*
X190201315Y-74403152D01*
X190201315Y-74403152D02*
X190153696Y-74212676D01*
X190153696Y-74212676D02*
X190058458Y-74117438D01*
X190058458Y-74117438D02*
X189963220Y-74069819D01*
X189153696Y-74784104D02*
X188677506Y-74784104D01*
X189248934Y-75069819D02*
X188915601Y-74069819D01*
X188915601Y-74069819D02*
X188582268Y-75069819D01*
X188248934Y-75069819D02*
X188248934Y-74069819D01*
X188248934Y-74069819D02*
X188010839Y-74069819D01*
X188010839Y-74069819D02*
X187867982Y-74117438D01*
X187867982Y-74117438D02*
X187772744Y-74212676D01*
X187772744Y-74212676D02*
X187725125Y-74307914D01*
X187725125Y-74307914D02*
X187677506Y-74498390D01*
X187677506Y-74498390D02*
X187677506Y-74641247D01*
X187677506Y-74641247D02*
X187725125Y-74831723D01*
X187725125Y-74831723D02*
X187772744Y-74926961D01*
X187772744Y-74926961D02*
X187867982Y-75022200D01*
X187867982Y-75022200D02*
X188010839Y-75069819D01*
X188010839Y-75069819D02*
X188248934Y-75069819D01*
X186629886Y-74069819D02*
X186058458Y-74069819D01*
X186344172Y-75069819D02*
X186344172Y-74069819D01*
X185725124Y-75069819D02*
X185725124Y-74069819D01*
X185725124Y-74069819D02*
X185344172Y-74069819D01*
X185344172Y-74069819D02*
X185248934Y-74117438D01*
X185248934Y-74117438D02*
X185201315Y-74165057D01*
X185201315Y-74165057D02*
X185153696Y-74260295D01*
X185153696Y-74260295D02*
X185153696Y-74403152D01*
X185153696Y-74403152D02*
X185201315Y-74498390D01*
X185201315Y-74498390D02*
X185248934Y-74546009D01*
X185248934Y-74546009D02*
X185344172Y-74593628D01*
X185344172Y-74593628D02*
X185725124Y-74593628D01*
X145700000Y-74400000D02*
X151900000Y-74400000D01*
X151900000Y-78000000D01*
X145700000Y-78000000D01*
X145700000Y-74400000D01*
X151229887Y-75146009D02*
X151087030Y-75193628D01*
X151087030Y-75193628D02*
X151039411Y-75241247D01*
X151039411Y-75241247D02*
X150991792Y-75336485D01*
X150991792Y-75336485D02*
X150991792Y-75479342D01*
X150991792Y-75479342D02*
X151039411Y-75574580D01*
X151039411Y-75574580D02*
X151087030Y-75622200D01*
X151087030Y-75622200D02*
X151182268Y-75669819D01*
X151182268Y-75669819D02*
X151563220Y-75669819D01*
X151563220Y-75669819D02*
X151563220Y-74669819D01*
X151563220Y-74669819D02*
X151229887Y-74669819D01*
X151229887Y-74669819D02*
X151134649Y-74717438D01*
X151134649Y-74717438D02*
X151087030Y-74765057D01*
X151087030Y-74765057D02*
X151039411Y-74860295D01*
X151039411Y-74860295D02*
X151039411Y-74955533D01*
X151039411Y-74955533D02*
X151087030Y-75050771D01*
X151087030Y-75050771D02*
X151134649Y-75098390D01*
X151134649Y-75098390D02*
X151229887Y-75146009D01*
X151229887Y-75146009D02*
X151563220Y-75146009D01*
X150610839Y-75384104D02*
X150134649Y-75384104D01*
X150706077Y-75669819D02*
X150372744Y-74669819D01*
X150372744Y-74669819D02*
X150039411Y-75669819D01*
X149848934Y-74669819D02*
X149277506Y-74669819D01*
X149563220Y-75669819D02*
X149563220Y-74669819D01*
X149087029Y-74669819D02*
X148515601Y-74669819D01*
X148801315Y-75669819D02*
X148801315Y-74669819D01*
X147563219Y-74669819D02*
X146991791Y-74669819D01*
X147277505Y-75669819D02*
X147277505Y-74669819D01*
X146658457Y-75669819D02*
X146658457Y-74669819D01*
X146658457Y-74669819D02*
X146277505Y-74669819D01*
X146277505Y-74669819D02*
X146182267Y-74717438D01*
X146182267Y-74717438D02*
X146134648Y-74765057D01*
X146134648Y-74765057D02*
X146087029Y-74860295D01*
X146087029Y-74860295D02*
X146087029Y-75003152D01*
X146087029Y-75003152D02*
X146134648Y-75098390D01*
X146134648Y-75098390D02*
X146182267Y-75146009D01*
X146182267Y-75146009D02*
X146277505Y-75193628D01*
X146277505Y-75193628D02*
X146658457Y-75193628D01*
X125600000Y-71500000D02*
X134100000Y-71500000D01*
X134100000Y-75200000D01*
X125600000Y-75200000D01*
X125600000Y-71500000D01*
X133191792Y-72674580D02*
X133239411Y-72722200D01*
X133239411Y-72722200D02*
X133382268Y-72769819D01*
X133382268Y-72769819D02*
X133477506Y-72769819D01*
X133477506Y-72769819D02*
X133620363Y-72722200D01*
X133620363Y-72722200D02*
X133715601Y-72626961D01*
X133715601Y-72626961D02*
X133763220Y-72531723D01*
X133763220Y-72531723D02*
X133810839Y-72341247D01*
X133810839Y-72341247D02*
X133810839Y-72198390D01*
X133810839Y-72198390D02*
X133763220Y-72007914D01*
X133763220Y-72007914D02*
X133715601Y-71912676D01*
X133715601Y-71912676D02*
X133620363Y-71817438D01*
X133620363Y-71817438D02*
X133477506Y-71769819D01*
X133477506Y-71769819D02*
X133382268Y-71769819D01*
X133382268Y-71769819D02*
X133239411Y-71817438D01*
X133239411Y-71817438D02*
X133191792Y-71865057D01*
X132763220Y-72769819D02*
X132763220Y-71769819D01*
X132763220Y-72246009D02*
X132191792Y-72246009D01*
X132191792Y-72769819D02*
X132191792Y-71769819D01*
X131763220Y-72484104D02*
X131287030Y-72484104D01*
X131858458Y-72769819D02*
X131525125Y-71769819D01*
X131525125Y-71769819D02*
X131191792Y-72769819D01*
X130287030Y-72769819D02*
X130620363Y-72293628D01*
X130858458Y-72769819D02*
X130858458Y-71769819D01*
X130858458Y-71769819D02*
X130477506Y-71769819D01*
X130477506Y-71769819D02*
X130382268Y-71817438D01*
X130382268Y-71817438D02*
X130334649Y-71865057D01*
X130334649Y-71865057D02*
X130287030Y-71960295D01*
X130287030Y-71960295D02*
X130287030Y-72103152D01*
X130287030Y-72103152D02*
X130334649Y-72198390D01*
X130334649Y-72198390D02*
X130382268Y-72246009D01*
X130382268Y-72246009D02*
X130477506Y-72293628D01*
X130477506Y-72293628D02*
X130858458Y-72293628D01*
X129334649Y-71817438D02*
X129429887Y-71769819D01*
X129429887Y-71769819D02*
X129572744Y-71769819D01*
X129572744Y-71769819D02*
X129715601Y-71817438D01*
X129715601Y-71817438D02*
X129810839Y-71912676D01*
X129810839Y-71912676D02*
X129858458Y-72007914D01*
X129858458Y-72007914D02*
X129906077Y-72198390D01*
X129906077Y-72198390D02*
X129906077Y-72341247D01*
X129906077Y-72341247D02*
X129858458Y-72531723D01*
X129858458Y-72531723D02*
X129810839Y-72626961D01*
X129810839Y-72626961D02*
X129715601Y-72722200D01*
X129715601Y-72722200D02*
X129572744Y-72769819D01*
X129572744Y-72769819D02*
X129477506Y-72769819D01*
X129477506Y-72769819D02*
X129334649Y-72722200D01*
X129334649Y-72722200D02*
X129287030Y-72674580D01*
X129287030Y-72674580D02*
X129287030Y-72341247D01*
X129287030Y-72341247D02*
X129477506Y-72341247D01*
X128858458Y-72246009D02*
X128525125Y-72246009D01*
X128382268Y-72769819D02*
X128858458Y-72769819D01*
X128858458Y-72769819D02*
X128858458Y-71769819D01*
X128858458Y-71769819D02*
X128382268Y-71769819D01*
X127334648Y-71769819D02*
X126763220Y-71769819D01*
X127048934Y-72769819D02*
X127048934Y-71769819D01*
X126429886Y-72769819D02*
X126429886Y-71769819D01*
X126429886Y-71769819D02*
X126048934Y-71769819D01*
X126048934Y-71769819D02*
X125953696Y-71817438D01*
X125953696Y-71817438D02*
X125906077Y-71865057D01*
X125906077Y-71865057D02*
X125858458Y-71960295D01*
X125858458Y-71960295D02*
X125858458Y-72103152D01*
X125858458Y-72103152D02*
X125906077Y-72198390D01*
X125906077Y-72198390D02*
X125953696Y-72246009D01*
X125953696Y-72246009D02*
X126048934Y-72293628D01*
X126048934Y-72293628D02*
X126429886Y-72293628D01*
M02*
