M48
; DRILL file {KiCad 7.0.10} date Sun Apr 27 19:33:42 2025
; FORMAT={-:-/ absolute / metric / decimal}
; #@! TF.CreationDate,2025-04-27T19:33:42+02:00
; #@! TF.GenerationSoftware,Kicad,Pcbnew,7.0.10
; #@! TF.FileFunction,Plated,1,2,PTH
FMAT,2
METRIC
; #@! TA.AperFunction,Plated,PTH,ViaDrill
T1C0.500
; #@! TA.AperFunction,Plated,PTH,ComponentDrill
T2C0.500
; #@! TA.AperFunction,Plated,PTH,ComponentDrill
T3C1.000
; #@! TA.AperFunction,Plated,PTH,ComponentDrill
T4C2.360
%
G90
G05
T1
X125.3Y-81.7
X125.3Y-82.7
X125.3Y-83.7
X127.3Y-76.1
X129.9Y-77.1
X144.6Y-66.3
X146.3Y-70.2
X147.1Y-73.8
X150.1Y-71.9
X150.3Y-70.7
X151.4Y-65.5
X155.1Y-65.7
X155.1Y-68.2
X157.2Y-73.6
X163.6Y-68.5
X163.6Y-69.7
X163.75Y-76.05
X164.7Y-68.5
X164.7Y-69.7
X169.2Y-72.4
X172.7Y-79.1
X172.8Y-75.8
X177.8Y-63.7
X179.3Y-67.2
X188.7Y-69.8
X192.2Y-69.7
X195.7Y-69.8
X197.2Y-76.3
X202.7Y-65.9
X206.9Y-66.0
X207.6Y-87.0
X207.6Y-89.0
X207.6Y-91.0
X209.6Y-87.0
X209.6Y-89.0
X209.6Y-91.0
X210.3Y-70.8
X211.3Y-70.8
X211.6Y-87.0
X211.6Y-89.0
X211.6Y-91.0
X212.3Y-70.8
T2
X128.6Y-74.0
X131.7Y-74.0
X147.1Y-76.7
X150.2Y-76.7
X186.5Y-76.3
X189.6Y-76.3
X193.9Y-73.6
X197.0Y-73.6
T3
X138.0Y-65.925
X138.0Y-68.465
X138.0Y-71.005
X138.0Y-73.545
X138.0Y-76.085
X189.9Y-63.3
X192.44Y-63.3
X194.98Y-63.3
T4
X214.915Y-67.695
X214.915Y-80.835
M30
