%TF.GenerationSoftware,KiCad,Pcbnew,7.0.10*%
%TF.CreationDate,2025-04-27T19:33:47+02:00*%
%TF.ProjectId,projekt,70726f6a-656b-4742-9e6b-696361645f70,rev?*%
%TF.SameCoordinates,Original*%
%TF.FileFunction,Soldermask,Bot*%
%TF.FilePolarity,Negative*%
%FSLAX46Y46*%
G04 Gerber Fmt 4.6, Leading zero omitted, Abs format (unit mm)*
G04 Created by KiCad (PCBNEW 7.0.10) date 2025-04-27 19:33:47*
%MOMM*%
%LPD*%
G01*
G04 APERTURE LIST*
%ADD10C,1.000000*%
%ADD11R,1.000000X1.000000*%
%ADD12C,2.200000*%
%ADD13C,2.390000*%
%ADD14C,3.450000*%
%ADD15R,1.700000X1.700000*%
%ADD16O,1.700000X1.700000*%
%ADD17C,3.580000*%
%ADD18C,0.750000*%
G04 APERTURE END LIST*
D10*
%TO.C,TP8*%
X197000000Y-73600000D03*
%TD*%
%TO.C,TP7*%
X186500000Y-76300000D03*
%TD*%
%TO.C,TP6*%
X131700000Y-74000000D03*
%TD*%
%TO.C,TP5*%
X150200000Y-76700000D03*
%TD*%
D11*
%TO.C,TP4*%
X193900000Y-73600000D03*
%TD*%
%TO.C,TP3*%
X189600000Y-76300000D03*
%TD*%
%TO.C,TP1*%
X147100000Y-76700000D03*
%TD*%
%TO.C,TP2*%
X128600000Y-74000000D03*
%TD*%
D12*
%TO.C,H3*%
X217000000Y-97000000D03*
%TD*%
%TO.C,H2*%
X217000000Y-63000000D03*
%TD*%
%TO.C,H1*%
X133000000Y-63000000D03*
%TD*%
D13*
%TO.C,BT1*%
X134115000Y-81000000D03*
D14*
X142335000Y-97000000D03*
X197535000Y-81000000D03*
%TD*%
D15*
%TO.C,J2*%
X189900000Y-63300000D03*
D16*
X192440000Y-63300000D03*
X194980000Y-63300000D03*
%TD*%
D15*
%TO.C,J1*%
X138000000Y-65925000D03*
D16*
X138000000Y-68465000D03*
X138000000Y-71005000D03*
X138000000Y-73545000D03*
X138000000Y-76085000D03*
%TD*%
D17*
%TO.C,J4*%
X214915000Y-80835250D03*
X214915000Y-67695250D03*
%TD*%
D18*
X163600000Y-69700000D03*
X155100000Y-68200000D03*
X147100000Y-73800000D03*
X155100000Y-65700000D03*
X197200000Y-76300000D03*
X206900000Y-66000000D03*
X212300000Y-70800000D03*
X163750000Y-76050000D03*
X157200000Y-73600000D03*
X211300000Y-70800000D03*
X195700000Y-69800000D03*
X150300000Y-70700000D03*
X210300000Y-70800000D03*
X188700000Y-69800000D03*
X151400000Y-65500000D03*
X164700000Y-69700000D03*
X177800000Y-63700000D03*
X127300000Y-76100000D03*
X211600000Y-89000000D03*
X172700000Y-79100000D03*
X129900000Y-77100000D03*
X192200000Y-69700000D03*
X211600000Y-91000000D03*
X209600000Y-91000000D03*
X125300000Y-83700000D03*
X202700000Y-65900000D03*
X211600000Y-87000000D03*
X207600000Y-89000000D03*
X179300000Y-67200000D03*
X207600000Y-91000000D03*
X146300000Y-70200000D03*
X209600000Y-87000000D03*
X209600000Y-89000000D03*
X163600000Y-68500000D03*
X164700000Y-68500000D03*
X125300000Y-81700000D03*
X144600000Y-66300000D03*
X150100000Y-71900000D03*
X207600000Y-87000000D03*
X172800000Y-75800000D03*
X169200000Y-72400000D03*
X125300000Y-82700000D03*
M02*
